<?xml version="1.0" encoding="UTF-8"?>
<svg width="184px" height="106px" viewBox="0 0 184 106" version="1.1" xmlns="http://www.w3.org/2000/svg" xmlns:xlink="http://www.w3.org/1999/xlink">
    <!-- Generator: Sketch 61 (89581) - https://sketch.com -->
    <title>bnr-pot-service-txt</title>
    <desc>Created with Sketch.</desc>
    <g id="Page-1" stroke="none" stroke-width="1" fill="none" fill-rule="evenodd">
        <g id="200323_kariomons-top" transform="translate(-795.000000, -2654.000000)">
            <g id="Group-33" transform="translate(795.000000, 2654.000000)">
                <path d="M12.4144715,25.7977022 C16.5406686,25.7977022 19.3393067,24.4342632 21.6356251,22.1379448 L19.5187066,19.4469466 C17.9041077,20.8821456 15.3207495,22.4608645 12.4144715,22.4608645 C4.96208846,22.4608645 3.76785292,15.5073674 3.73235248,12.9970462 L3.73151743,12.8809111 C3.73151743,10.4769528 4.84379667,3.26507775 12.4144715,3.26507775 C15.2131095,3.26507775 17.9399877,4.80791669 19.3034267,6.38663561 L21.7073851,4.05443721 C19.4469466,1.57871891 16.7200685,0 12.4144715,0 C2.83451805,0 -3.12638804e-13,7.64243474 -3.12638804e-13,12.8809111 C-3.12638804e-13,18.2629074 2.83451805,25.7977022 12.4144715,25.7977022 Z M40.1342092,25.6183024 C48.1713236,25.6183024 50.4676421,19.3751867 50.4676421,14.8901898 C50.4676421,10.5487127 48.1713236,4.30559704 40.1342092,4.30559704 C32.0970947,4.30559704 29.8007763,10.5487127 29.8007763,14.8901898 C29.8007763,19.3751867 32.0970947,25.6183024 40.1342092,25.6183024 Z M40.1342092,22.3891046 C34.2498932,22.3891046 33.3528938,16.7918284 33.3528938,14.8901898 C33.3528938,12.9885511 34.2498932,7.53479482 40.1342092,7.53479482 C46.0185251,7.53479482 46.8796445,12.9885511 46.8796445,14.8901898 C46.8796445,16.7918284 46.0185251,22.3891046 40.1342092,22.3891046 Z M62.4719506,25.4747825 L62.4719506,16.7200685 L70.616705,16.7200685 L70.616705,13.5267507 L62.4719506,13.5267507 L62.4719506,7.67831472 L72.8771434,7.67831472 L72.8771434,4.52087689 L58.919833,4.52087689 L58.919833,25.4747825 L62.4719506,25.4747825 Z M85.2402517,25.4747825 L85.2402517,16.7200685 L93.3850061,16.7200685 L93.3850061,13.5267507 L85.2402517,13.5267507 L85.2402517,7.67831472 L95.6454445,7.67831472 L95.6454445,4.52087689 L81.6881341,4.52087689 L81.6881341,25.4747825 L85.2402517,25.4747825 Z M118.413746,25.4747825 L118.413746,22.2814647 L108.008553,22.2814647 L108.008553,16.7200685 L116.153307,16.7200685 L116.153307,13.5267507 L108.008553,13.5267507 L108.008553,7.67831472 L118.413746,7.67831472 L118.413746,4.52087689 L104.456435,4.52087689 L104.456435,25.4747825 L118.413746,25.4747825 Z M141.182047,25.4747825 L141.182047,22.2814647 L130.776854,22.2814647 L130.776854,16.7200685 L138.921608,16.7200685 L138.921608,13.5267507 L130.776854,13.5267507 L130.776854,7.67831472 L141.182047,7.67831472 L141.182047,4.52087689 L127.224736,4.52087689 L127.224736,25.4747825 L141.182047,25.4747825 Z M5.13083647,65.5759313 L5.13083647,56.2471378 L11.3021922,56.2471378 C15.3207495,56.2471378 19.5187066,53.05382 19.5187066,48.3176632 C19.5187066,45.1243454 17.5453079,40.4599486 10.7998726,40.4599486 L1.43519901,40.4599486 L1.43519901,65.5759313 L5.13083647,65.5759313 Z M11.1227923,52.98206 L5.13083647,52.98206 L5.13083647,43.6532664 L10.9792724,43.6532664 C14.9619497,43.6532664 15.8230691,46.7030643 15.8230691,48.3176632 C15.8230691,49.7887422 14.9619497,52.8744201 11.1227923,52.98206 Z M36.5947551,65.7194512 C44.6318696,65.7194512 46.928188,59.4763355 46.928188,54.9913386 C46.928188,50.6498616 44.6318696,44.4067459 36.5947551,44.4067459 C28.5576407,44.4067459 26.2613222,50.6498616 26.2613222,54.9913386 C26.2613222,59.4763355 28.5576407,65.7194512 36.5947551,65.7194512 Z M36.5947551,62.4902535 C30.7104392,62.4902535 29.8134398,56.8929773 29.8134398,54.9913386 C29.8134398,53.0896999 30.7104392,47.6359437 36.5947551,47.6359437 C42.4790711,47.6359437 43.3401905,53.0896999 43.3401905,54.9913386 C43.3401905,56.8929773 42.4790711,62.4902535 36.5947551,62.4902535 Z M62.3410942,65.5759313 L62.3410942,47.7794636 L68.3330501,47.7794636 L68.3330501,44.6220258 L52.8687807,44.6220258 L52.8687807,47.7794636 L58.7889766,47.7794636 L58.7889766,65.5759313 L62.3410942,65.5759313 Z M9.11351373,105.96412 C14.1725902,105.96412 18.0117476,103.021962 18.0117476,99.1469247 C18.0117476,89.2799315 3.91091731,92.5808892 3.91091731,86.8042132 C4.09031719,84.149095 6.20723573,83.6108954 8.8623539,83.6108954 C10.5128328,83.6108954 13.5985106,84.5796547 15.2848695,85.2254943 L16.6483085,82.1756964 C12.9167911,80.4534576 9.50819346,80.1664178 8.03711447,80.1664178 C3.44447763,80.1664178 0.215279852,82.749776 0.215279852,87.091253 C0.215279852,96.1330068 14.1725902,92.2579695 14.1725902,99.1110447 C14.1725902,101.299723 11.589232,102.699042 8.82647393,102.699042 C6.0995958,102.699042 3.65975748,101.945563 1.39931904,100.833284 L-3.12638804e-13,103.739562 C2.7627581,105.210641 5.3819963,105.96412 9.11351373,105.96412 Z M40.7800487,105.67708 L40.7800487,102.483762 L30.3748559,102.483762 L30.3748559,96.9223662 L38.5196103,96.9223662 L38.5196103,93.7290484 L30.3748559,93.7290484 L30.3748559,87.8806125 L40.7800487,87.8806125 L40.7800487,84.7231746 L26.8227383,84.7231746 L26.8227383,105.67708 L40.7800487,105.67708 Z M53.071397,105.67708 L53.071397,98.0705255 L56.7311545,98.0705255 L60.2832721,105.67708 L64.0865495,105.67708 L60.3191521,97.6040858 C62.7589904,96.6353264 64.732389,94.374888 64.732389,91.3250901 C64.732389,88.598212 63.0101502,84.7231746 57.4128741,84.7231746 L49.5910394,84.7231746 L49.5910394,105.67708 L53.071397,105.67708 Z M57.6640339,94.8413277 L53.071397,94.8413277 L53.071397,87.8447325 L57.556394,87.8447325 C60.5344319,87.8447325 61.2161514,90.1410509 61.2161514,91.3250901 C61.2161514,92.4373693 60.5344319,94.8413277 57.6640339,94.8413277 Z M80.0376553,105.85648 L89.4740888,84.7231746 L85.6708114,84.7231746 L79.8941354,98.788125 L74.0815794,84.7231746 L70.314182,84.7231746 L79.7506155,105.85648 L80.0376553,105.85648 Z M100.437878,105.67708 L100.437878,84.7231746 L96.8498805,84.7231746 L96.8498805,105.67708 L100.437878,105.67708 Z M119.259382,106 C122.703859,106 125.107818,104.780081 127.117096,102.770802 L125.036058,100.187444 C123.672619,101.479123 121.59158,102.699042 119.259382,102.699042 C113.375066,102.591402 112.478067,97.0300062 112.478067,95.0924875 C112.478067,93.1908488 113.375066,87.5576927 119.259382,87.5576927 C121.41218,87.5576927 123.600859,88.8493718 124.856658,90.2128109 L127.188856,87.9523724 C125.179578,85.7636939 122.811499,84.3284949 119.259382,84.3284949 C111.258147,84.3284949 108.890069,90.7868905 108.890069,95.0924875 C108.890069,99.5774844 111.258147,106 119.259382,106 Z M149.239558,105.67708 L149.239558,102.483762 L138.834365,102.483762 L138.834365,96.9223662 L146.97912,96.9223662 L146.97912,93.7290484 L138.834365,93.7290484 L138.834365,87.8806125 L149.239558,87.8806125 L149.239558,84.7231746 L135.282248,84.7231746 L135.282248,105.67708 L149.239558,105.67708 Z" id="CoffeePotService" fill="#045671" fill-rule="nonzero"></path>
                <g id="Group-48" transform="translate(82.960000, 46.405000)">
                    <path d="M12.9438993,3.4512507 C13.834738,3.4512507 14.547409,2.753427 14.547409,1.86258824 C14.547409,0.971749478 13.834738,0.273925781 12.9438993,0.273925781 C12.0530605,0.273925781 11.3403895,0.942054853 11.3403895,1.86258824 C11.3403895,2.753427 12.0530605,3.4512507 12.9438993,3.4512507 Z M12.9438993,2.73857969 C12.4390906,2.73857969 12.0679078,2.36739687 12.0679078,1.86258824 C12.0679078,1.35777961 12.4390906,0.986596791 12.9438993,0.986596791 C13.4487079,0.986596791 13.8198907,1.35777961 13.8198907,1.86258824 C13.8198907,2.36739687 13.4487079,2.73857969 12.9438993,2.73857969 Z M6.23291392,13.3989502 C6.85650105,13.3841029 7.65825594,13.1762405 8.13336994,12.9089889 C8.74210976,12.5971953 9.00936139,12.107234 9.00936139,11.3797157 C9.00936139,10.2216253 8.97966677,9.58319085 8.97966677,8.79628327 L8.96481945,5.79712611 L10.7168024,5.79712611 C11.7264196,5.79712611 12.8548154,5.84166805 13.7753488,5.87136267 C13.9238219,5.88620998 13.9683638,5.78227879 13.9832111,5.58926373 C14.0129058,5.2032336 14.0129058,4.81720347 13.9980585,4.43117334 C13.9980585,4.2678529 13.9386692,4.17876902 13.8050434,4.19361633 C13.0775251,4.22331096 12.0679078,4.28270021 10.7761916,4.28270021 L8.94997214,4.28270021 L8.94997214,3.49579264 C8.94997214,2.60495388 8.96481945,2.26346568 9.09844527,2.01106137 C9.2469184,1.72896243 9.21722377,1.5804893 8.92027752,1.52110005 C8.5490947,1.44686348 7.77703444,1.35777961 7.07921074,1.29839036 C7.21283655,1.96651943 7.24253118,2.64949581 7.24253118,3.58487651 L7.24253118,4.28270021 L4.88180846,4.28270021 C4.12459551,4.28270021 3.21890944,4.2678529 2.09051367,4.17876902 C2.09051367,4.66873034 2.13505561,5.33685941 2.14990292,5.60411104 C2.14990292,5.78227879 2.20929217,5.9010573 2.34291799,5.9010573 C3.04074169,5.84166805 4.06520626,5.79712611 4.91150309,5.79712611 L7.24253118,5.79712611 L7.24253118,10.919449 C7.24253118,11.3054791 7.13859999,11.4687996 6.90104299,11.5727307 C6.54470748,11.6915093 5.89142572,11.7508985 4.88180846,11.7508985 C5.34207515,12.1369286 5.65386872,12.5675007 5.87657841,13.0871566 C5.96566229,13.3098663 6.05474616,13.3989502 6.23291392,13.3989502 Z M3.30799331,11.1718533 C3.91673313,10.5185715 4.57001489,9.47925966 4.95604502,8.69235208 C5.07482353,8.45479508 5.17875471,8.30632195 5.32722784,8.18754345 C5.59447947,7.97968107 5.50539559,7.83120795 5.26783859,7.66788751 C4.89665577,7.4303305 4.33245789,7.17792619 3.72371807,6.98491112 C3.64948151,7.46002513 3.54555032,7.78666601 3.32284063,8.18754345 C2.92196318,8.97445103 2.38745993,9.74651129 1.52631579,10.63735 C1.94204055,10.7412812 2.3577653,10.9788382 2.78833737,11.2609372 C3.01104706,11.4094103 3.12982556,11.3648684 3.30799331,11.1718533 Z M13.0775251,11.1124641 C13.4190133,10.8897544 13.834738,10.5928081 14.072295,10.3700984 C14.2356155,10.2364726 14.2801574,10.1325414 14.1465316,9.90983173 C13.4635552,8.78143596 12.7508842,7.81636063 12.0233659,7.1927735 C11.9045874,7.04430037 11.7858089,6.99975844 11.6076411,7.13338425 C11.2661529,7.38578857 10.8801228,7.63819288 10.4792453,7.93513914 C11.3849314,8.85567252 12.2015336,10.0583049 12.7360369,11.0530748 C12.8399681,11.2460899 12.9142046,11.2163952 13.0775251,11.1124641 Z M22.7858262,7.72727676 C23.2015509,7.57880363 23.5281918,7.4303305 23.8102907,7.26701006 C24.0033058,7.16307888 24.0330004,7.08884231 23.9587639,6.86613262 C23.7212069,6.15346161 23.2163982,5.21808091 22.8155208,4.69842497 C22.6967423,4.52025721 22.5928111,4.5054099 22.4294907,4.57964647 C22.1770863,4.68357765 21.8355982,4.84689809 21.2417056,5.12899704 C21.8059035,5.91590461 22.1473917,6.62857562 22.4888799,7.50456707 C22.5631165,7.71242945 22.6225057,7.78666601 22.7858262,7.72727676 Z M21.5089573,13.7404384 C21.6277358,13.7404384 21.7465143,13.6662018 21.8652928,13.577118 C23.1273144,12.7456685 23.9439166,11.9587609 24.9238392,10.7115866 C25.7552887,9.62773278 26.527349,8.27662733 27.1657834,6.76220143 C27.2845619,6.4949498 27.3884931,6.19800355 27.6112028,6.00498848 C27.7299813,5.9010573 27.7745232,5.82682073 27.7745232,5.73773686 C27.7745232,5.64865298 27.7002867,5.57441642 27.5815082,5.48533254 C27.2103254,5.23292822 26.5421963,4.9656766 25.9186091,4.77266153 C25.8592199,5.47048523 25.770136,5.79712611 25.577121,6.34647668 C25.1465489,7.50456707 24.3150994,8.95960371 23.5727337,9.92467904 C22.681895,11.0827694 21.7910562,11.8399824 20.0093787,13.0129201 C20.5587293,13.1762405 20.9002175,13.339561 21.2714003,13.6365072 C21.3456368,13.7107438 21.4347207,13.7404384 21.5089573,13.7404384 Z M20.024226,8.48448971 C20.3657142,8.35086389 20.6181185,8.23208539 20.974454,8.02422301 C21.0932325,7.94998645 21.1526218,7.90544451 21.1526218,7.81636063 C21.1526218,7.75697138 21.1229271,7.69758213 21.0932325,7.59365094 C20.8111336,6.80674337 20.3360196,6.04953042 19.8163636,5.39624866 C19.6975851,5.23292822 19.5936539,5.21808091 19.4303335,5.29231748 C19.1185399,5.4407906 18.7622044,5.60411104 18.2573958,5.88620998 C18.8512883,6.59888099 19.311555,7.41548319 19.6530432,8.27662733 C19.7272797,8.48448971 19.8163636,8.55872627 20.024226,8.48448971 Z M33.8637629,13.5474233 C34.0716252,13.5474233 34.1458618,13.5028814 34.1310145,13.3247136 C34.1013199,12.2557071 34.0716252,11.3797157 34.0716252,10.4146404 L34.0716252,7.13338425 C35.2742576,7.50456707 36.6105157,8.15784883 37.9764685,9.03384028 C38.0358577,9.09322953 38.095247,9.10807684 38.1397889,9.10807684 C38.2140255,9.10807684 38.2734147,9.04868759 38.332804,8.9447564 C38.5406664,8.60326821 38.7782234,8.14300151 38.9712384,7.65304019 C39.045475,7.46002513 38.9712384,7.35609394 38.807918,7.26701006 C37.338034,6.39101862 35.8978447,5.81197342 34.0864725,5.24777554 L34.086851,2.77251834 C34.0889325,2.1831672 34.102462,1.89228287 34.1904037,1.72896243 C34.2646403,1.59533661 34.3091822,1.47655811 34.3091822,1.38747423 C34.3091822,1.26869573 34.2349457,1.17961186 34.0270833,1.13506992 C33.5965112,1.01629142 32.8541456,0.942054853 32.1711692,0.897512915 C32.2751004,1.49140542 32.3196423,1.98136674 32.3196423,3.09491519 L32.3196423,10.399793 C32.3196423,11.3500211 32.304795,12.2260125 32.2602531,13.3247136 C32.2602531,13.5028814 32.3344896,13.5474233 32.542352,13.5474233 C32.9729241,13.577118 33.4331908,13.577118 33.8637629,13.5474233 Z M46.7215357,13.5474233 C46.8106195,13.5474233 46.929398,13.5028814 47.1372604,13.4137975 C48.6962282,12.7753631 49.8988606,11.8845243 50.6412262,10.6521974 C51.3687445,9.44956503 51.6953854,8.20239076 51.7844693,6.07922505 L52.3932091,6.07922505 C53.1207274,6.07922505 54.0264135,6.09407236 54.5312221,6.09407236 C54.7390845,6.10891967 54.7687791,6.04953042 54.7836265,5.85651536 C54.8133211,5.48533254 54.8133211,5.05476047 54.7836265,4.68357765 C54.7687791,4.52025721 54.7539318,4.43117334 54.5757641,4.44602065 C53.8927877,4.47571528 53.0613382,4.49056259 52.3338199,4.49056259 L51.8141639,4.49056259 L51.8141639,3.08006788 C51.8141639,2.44163344 51.8290112,2.05560331 51.9329424,1.77350436 C51.9774844,1.65472586 51.9923317,1.56564199 51.9923317,1.50625274 C51.9923317,1.38747423 51.9329424,1.31323767 51.72508,1.26869573 C51.3687445,1.16476454 50.5521423,1.07568067 49.9879445,1.01629142 C50.0918756,1.53594736 50.1364176,2.21892375 50.1215703,3.05037326 L50.106723,4.5054099 L46.9145507,4.5054099 L46.9153822,2.91128363 C46.918708,2.34779842 46.935337,2.21001536 47.0184819,1.99621405 C47.0630239,1.87743555 47.1075658,1.77350436 47.1075658,1.68442049 C47.1075658,1.5804893 47.0481765,1.50625274 46.8848561,1.47655811 C46.5730625,1.38747423 45.8455442,1.31323767 45.0734839,1.23900111 C45.2219571,2.10014524 45.2516517,2.47132806 45.2516517,3.42155607 L45.2516517,4.5054099 L44.8062323,4.5054099 C43.6629892,4.5054099 42.6979139,4.47571528 42.0743268,4.43117334 C42.1040214,5.03991316 42.1188687,5.5595691 42.178258,5.87136267 C42.1931053,6.06437774 42.2376472,6.15346161 42.3564257,6.15346161 C42.8166924,6.12376699 44.0044774,6.07922505 44.8062323,6.07922505 L45.2516517,6.07922505 L45.2516517,6.64342293 C45.2516517,7.57880363 45.2219571,8.30632195 45.1774151,9.07838221 C45.1625678,9.24170265 45.2516517,9.27139728 45.4446668,9.28624459 C45.8455442,9.31593922 46.3355055,9.31593922 46.7215357,9.28624459 C46.8848561,9.27139728 46.9887873,9.24170265 46.97394,9.07838221 C46.9383064,8.44885616 46.9311797,7.80982782 46.9297544,7.1308899 L46.929398,6.07922505 L50.0918756,6.07922505 C50.0324864,7.8905972 49.7949294,8.91506177 49.2158842,9.86528979 C48.4586712,11.0827694 47.3154282,11.8399824 45.2071098,12.4932641 C45.7119184,12.7159738 45.9940173,12.9238362 46.4394367,13.3841029 C46.5582152,13.5028814 46.6324518,13.5474233 46.7215357,13.5474233 Z M58.7274221,8.46964239 C58.8758953,8.46964239 59.4400932,8.29147464 60.9099771,8.29147464 L66.2550097,8.29147464 C67.3537108,8.29147464 68.452412,8.30632195 69.5659604,8.32116927 C69.7738228,8.33601658 69.833212,8.27662733 69.833212,8.09845958 C69.8629067,7.65304019 69.8629067,7.14823156 69.833212,6.70281218 C69.833212,6.52464443 69.7886701,6.48010249 69.5659604,6.4949498 C68.4227173,6.50979712 67.2794743,6.53949174 66.1510785,6.53949174 L61.3702438,6.53949174 C59.8706652,6.53949174 59.1282996,6.50979712 58.1632243,6.36132399 C58.2226135,7.11853694 58.3116974,7.81636063 58.385934,8.15784883 C58.4304759,8.38055852 58.5492544,8.46964239 58.7274221,8.46964239 Z M84.0625271,3.15430445 L84.6564196,2.69403775 C84.7751981,2.60495388 84.7603508,2.51587 84.7009616,2.42678612 C84.3743207,1.90713018 83.8398174,1.31323767 83.2904668,0.897512915 C83.201383,0.823276351 83.156841,0.808429039 83.0677572,0.867818289 L82.3253915,1.40232155 C82.9341313,1.90713018 83.4092453,2.47132806 83.8101228,3.10976251 C83.869512,3.19884638 83.9437486,3.24338832 84.0625271,3.15430445 Z M82.7114217,4.1490744 L83.3350088,3.6888077 C83.43894,3.61457114 83.43894,3.54033458 83.3795507,3.4512507 C82.963826,2.81281625 82.4293227,2.21892375 81.969056,1.86258824 C81.8799721,1.78835168 81.8205829,1.77350436 81.7463463,1.83289362 L80.9594388,2.38224419 C81.5384839,2.85735819 82.013598,3.42155607 82.4590173,4.10453246 C82.5332539,4.20846365 82.6074905,4.22331096 82.7114217,4.1490744 Z M77.7078773,12.7011265 C79.5786387,12.7011265 80.4397828,12.6417373 82.1175291,12.4338749 C82.3402388,12.4190276 82.4293227,12.3596383 82.4293227,12.1666233 C82.4293227,11.8548297 82.3847808,11.2906318 82.3402388,10.8749071 C82.3253915,10.6967393 82.2956969,10.63735 82.0729872,10.6670447 C80.5288667,10.9046017 79.2816924,11.0085329 77.886045,11.0085329 C76.9803589,11.0085329 76.4013138,10.9491436 76.0152836,10.8452124 C75.6292535,10.7264339 75.5253223,10.4888769 75.5253223,9.79105322 L75.5253223,7.81636063 C77.4851676,7.23731544 79.1480666,6.64342293 80.6179506,5.97529386 C81.018828,5.79712611 81.4345528,5.58926373 81.8502775,5.48533254 C82.0284453,5.4407906 82.1026818,5.33685941 82.1026818,5.21808091 C82.1026818,5.12899704 82.0581399,5.03991316 81.9839033,4.95082928 C81.7611936,4.65388303 81.2712323,4.04514321 80.7515764,3.61457114 C80.3358516,4.05999052 79.9646688,4.29754752 79.1629139,4.68357765 C77.9751289,5.26262285 76.8467331,5.69319492 75.5401696,6.12376699 L75.5401696,4.05999052 C75.5401696,3.36216682 75.5698642,2.96128938 75.6886427,2.72373238 C75.748032,2.61980119 75.7925739,2.51587 75.7925739,2.41193881 C75.7925739,2.30800762 75.7331847,2.21892375 75.5550169,2.17438181 C75.0799029,2.04075599 74.3820792,1.95167212 73.6842555,1.87743555 C73.803034,2.61980119 73.8327287,3.18399907 73.8327287,4.59449378 L73.8327287,10.0731522 C73.8327287,11.2906318 74.1445222,11.9884555 74.8868879,12.3002491 C75.510475,12.5675007 76.3864664,12.7011265 77.7078773,12.7011265 Z M88.091098,12.8050577 C88.1950291,12.8050577 88.2989603,12.7456685 88.4325861,12.6862792 C90.0509432,11.7805931 91.7435369,10.5185715 93.4212832,8.76658865 C94.7575414,9.82074785 96.0344103,10.9936856 97.2815845,12.4487222 C97.3558211,12.5229588 97.4152103,12.5675007 97.4894469,12.5675007 C97.5488361,12.5675007 97.6082254,12.5378061 97.6676146,12.4784168 C98.0387975,12.1666233 98.3802857,11.8102878 98.6623846,11.4687996 C98.7366212,11.3797157 98.7663158,11.3054791 98.7663158,11.2460899 C98.7663158,11.1867006 98.7217739,11.1124641 98.6475373,11.0382275 C97.2815845,9.65742741 95.9601737,8.49933702 94.5348317,7.44517782 C95.2475027,6.53949174 95.8265479,5.70804223 96.4352877,4.66873034 C96.5986081,4.40147871 96.7916232,4.17876902 96.9846383,4.01544858 C97.1182641,3.91151739 97.1776533,3.8075862 97.1776533,3.71850233 C97.1776533,3.65911308 97.1479587,3.59972383 97.1034168,3.52548726 C96.8213178,3.13945713 96.4798296,2.753427 96.1383414,2.48617537 C96.0492576,2.42678612 95.975021,2.36739687 95.8859371,2.36739687 C95.8265479,2.36739687 95.7820059,2.38224419 95.7226167,2.42678612 C95.499907,2.54556462 95.2326554,2.56041194 94.6981521,2.56041194 L90.6151411,2.56041194 C89.6500658,2.56041194 88.9077002,2.56041194 88.1059453,2.50102269 C88.1059453,3.02067863 88.1653345,3.73334964 88.2395711,4.04514321 C88.2692657,4.20846365 88.3138076,4.31239484 88.4325861,4.29754752 C89.234341,4.23815827 90.0064013,4.20846365 90.7784616,4.20846365 L94.6090682,4.19361633 C93.7033822,5.75258417 92.88678,6.80674337 91.8177734,7.92029182 C90.2885002,9.47925966 88.9077002,10.5334189 86.5915194,11.7063566 C87.0814807,11.9736082 87.5120528,12.2705544 87.8386936,12.6714319 C87.9129302,12.7605158 88.0020141,12.8050577 88.091098,12.8050577 Z" id="ポットサービス" fill="#105670" fill-rule="nonzero"></path>
                    <line x1="0.526315789" y1="18.235" x2="99.4736842" y2="18.235" id="Line-5" stroke="#005672" stroke-linecap="square"></line>
                </g>
            </g>
        </g>
    </g>
</svg>