<?xml version="1.0" encoding="UTF-8"?>
<svg width="52px" height="27px" viewBox="0 0 52 27" version="1.1" xmlns="http://www.w3.org/2000/svg" xmlns:xlink="http://www.w3.org/1999/xlink">
    <!-- Generator: Sketch 61 (89581) - https://sketch.com -->
    <title>Group 36</title>
    <desc>Created with Sketch.</desc>
    <g id="Page-1" stroke="none" stroke-width="1" fill="none" fill-rule="evenodd">
        <g id="access" transform="translate(-1314.000000, -2185.000000)">
            <rect fill="#F9F9F9" x="0" y="0" width="1440" height="3985"></rect>
            <g id="Group-36" transform="translate(1313.456753, 2185.000000)">
                <rect id="Rectangle" fill="#105670" x="0.543247344" y="0" width="52" height="27" rx="3"></rect>
                <path d="M17.6661646,13.6098118 C17.7431646,13.6098118 17.7871646,13.5328118 17.8861646,13.3788118 C18.3591646,12.7078118 18.7441646,12.0038118 19.0411646,11.3548118 C19.1181646,11.1788118 19.1621646,11.1018118 19.2391646,11.0248118 C19.2941646,10.9698118 19.3161646,10.9148118 19.3161646,10.8488118 C19.3161646,10.7608118 19.2831646,10.6838118 18.9751646,10.3978118 C18.6341646,10.0898118 18.5681646,10.0788118 18.4911646,10.0788118 C18.4471646,10.0788118 18.3701646,10.1008118 18.3261646,10.1228118 C18.2821646,10.1448118 18.1941646,10.1668118 18.0621646,10.1668118 L14.6851646,10.1668118 C14.7731646,9.94681184 14.8611646,9.72681184 14.9381646,9.50681184 C15.0371646,9.20981184 15.0811646,9.08881184 15.1581646,9.01181184 C15.2351646,8.93481184 15.2681646,8.87981184 15.2681646,8.81381184 C15.2681646,8.74781184 15.2021646,8.69281184 15.0701646,8.65981184 C14.7621646,8.58281184 14.3441646,8.48381184 13.9481646,8.42881184 C13.9261646,8.70381184 13.8711646,8.98981184 13.7501646,9.41881184 C13.4641646,10.3648118 12.8591646,11.5088118 11.9131646,12.4988118 C12.1331646,12.5758118 12.4301646,12.7628118 12.6721646,12.9608118 C12.8041646,13.0708118 12.8701646,13.1258118 12.9251646,13.1258118 C12.9801646,13.1258118 13.0351646,13.0598118 13.1451646,12.9278118 C13.5631646,12.3778118 13.9151646,11.7948118 14.2121646,11.2008118 L17.8861646,11.2008118 C17.5891646,11.9048118 17.1931646,12.5098118 16.6651646,13.1258118 C16.8961646,13.1918118 17.1711646,13.3238118 17.4021646,13.4668118 C17.5341646,13.5548118 17.6111646,13.6098118 17.6661646,13.6098118 Z M11.5831646,11.5638118 L12.2211646,10.9698118 C12.3201646,10.8708118 12.3201646,10.8488118 12.2541646,10.7608118 C11.7591646,10.1448118 11.3411646,9.67181184 10.7361646,9.16581184 C10.6921646,9.13281184 10.6591646,9.11081184 10.6371646,9.11081184 C10.6041646,9.11081184 10.5711646,9.13281184 10.5161646,9.17681184 L9.88916464,9.68281184 C9.76816464,9.78181184 9.75716464,9.80381184 9.84516464,9.88081184 C10.4391646,10.3868118 10.9011646,10.9258118 11.3631646,11.5858118 C11.4291646,11.6848118 11.4511646,11.6738118 11.5831646,11.5638118 Z M11.8801646,18.4828118 C11.9351646,18.4828118 12.0121646,18.4498118 12.1331646,18.3948118 C13.8051646,17.6138118 14.9161646,16.4588118 15.4441646,14.9738118 C15.9721646,16.3928118 17.0611646,17.5258118 18.5241646,18.3068118 C18.6561646,18.3728118 18.7331646,18.4058118 18.7881646,18.4058118 C18.8761646,18.4058118 18.9091646,18.3288118 19.0081646,18.1528118 C19.1621646,17.8558118 19.3821646,17.5368118 19.5911646,17.3498118 C17.5891646,16.5468118 16.1701646,15.2818118 15.8071646,12.8728118 C15.8071646,12.5208118 15.8291646,12.3338118 15.8731646,12.2348118 C15.9171646,12.1358118 15.9391646,12.0808118 15.9391646,11.9928118 C15.9391646,11.9158118 15.8841646,11.8828118 15.7631646,11.8608118 C15.3671646,11.8278118 14.9931646,11.8058118 14.5971646,11.7948118 C14.6631646,12.1358118 14.6851646,12.4328118 14.6851646,12.9388118 C14.6851646,15.0618118 13.4201646,16.7118118 11.0771646,17.5368118 C11.2861646,17.7128118 11.4951646,17.9548118 11.6601646,18.2408118 C11.7591646,18.4168118 11.7921646,18.4828118 11.8801646,18.4828118 Z M10.0431646,16.9868118 C10.0981646,16.9868118 10.1531646,16.9538118 10.2081646,16.8878118 C10.2741646,16.7998118 10.3731646,16.7448118 10.5381646,16.6238118 C11.2641646,16.1178118 11.8911646,15.6448118 12.7381646,14.9188118 C12.8591646,14.7978118 12.9141646,14.7318118 12.9141646,14.6548118 C12.9141646,14.5778118 12.8811646,14.5008118 12.8041646,14.3468118 C12.6611646,14.0718118 12.5511646,13.7748118 12.4851646,13.5548118 C11.5721646,14.3908118 10.9121646,14.8638118 10.0541646,15.4248118 C9.80116464,15.5898118 9.52616464,15.7328118 9.24016464,15.8538118 C9.43816464,16.2168118 9.69116464,16.5908118 9.85616464,16.8328118 C9.91116464,16.9208118 9.98816464,16.9868118 10.0431646,16.9868118 Z M28.3101646,17.6248118 C30.5431646,16.9538118 31.6981646,15.6668118 31.6981646,13.6208118 C31.6981646,11.4318118 30.1471646,9.80381184 27.5071646,9.80381184 C26.0221646,9.80381184 24.8561646,10.2878118 23.9321646,11.2118118 C23.1401646,12.0038118 22.6891646,13.0158118 22.6891646,14.0718118 C22.6891646,15.8648118 23.6681646,16.8988118 24.6361646,16.8988118 C25.4611646,16.8988118 26.0331646,16.4588118 26.5061646,15.6338118 C27.1661646,14.4788118 27.6281646,12.7628118 27.8811646,10.8928118 L27.9251646,10.8928118 C29.3991646,10.8928118 30.3891646,12.1358118 30.3891646,13.4448118 C30.3891646,15.5238118 28.9261646,16.2938118 27.0671646,16.7338118 C27.4851646,16.9868118 27.7161646,17.2398118 27.8371646,17.4268118 C27.9801646,17.6468118 28.0791646,17.6908118 28.3101646,17.6248118 Z M24.6141646,15.5678118 C24.2731646,15.5678118 23.8661646,15.0068118 23.8661646,13.9948118 C23.8661646,13.2908118 24.1961646,12.5538118 24.7241646,11.9598118 C25.2191646,11.4208118 25.8351646,11.1128118 26.6051646,10.9588118 C26.4181646,12.4218118 25.9231646,14.0058118 25.4391646,14.8968118 C25.1421646,15.4248118 24.9001646,15.5678118 24.6141646,15.5678118 Z M36.0501646,18.4828118 C36.1161646,18.4828118 36.1711646,18.4168118 36.2811646,18.2958118 C37.1831646,17.2728118 37.6561646,16.4148118 37.8651646,14.8858118 L41.7921646,14.8858118 L41.7921646,16.8108118 C41.7921646,17.0528118 41.6711646,17.1958118 41.4071646,17.1958118 C40.9781646,17.1958118 40.6261646,17.1848118 40.1531646,17.1408118 C40.2741646,17.3608118 40.3951646,17.7458118 40.4391646,18.0648118 C40.4791646,18.3848118 40.5009828,18.4048118 40.7608175,18.4058036 L40.8461646,18.4058118 C42.0121646,18.4058118 42.3861646,18.3508118 42.6721646,18.0868118 C42.9471646,17.8228118 43.0241646,17.5368118 43.0241646,17.0638118 C43.0241646,16.4588118 42.9911646,15.6228118 42.9911646,14.8638118 L42.9911646,10.5408118 C42.9911646,9.60581184 43.0131646,9.11081184 43.0131646,9.04481184 C43.0131646,8.92381184 43.0021646,8.91281184 42.8921646,8.91281184 C42.8151646,8.91281184 42.4631646,8.93481184 41.4401646,8.93481184 L38.3821646,8.93481184 C37.3591646,8.93481184 36.9961646,8.91281184 36.9191646,8.91281184 C36.8091646,8.91281184 36.7981646,8.92381184 36.7981646,9.04481184 C36.7981646,9.10609755 36.817134,9.53728633 36.8198439,10.3471854 L36.8201646,12.1578118 C36.8201646,15.5018118 36.4571646,16.4368118 35.0051646,17.7898118 C35.2691646,17.8998118 35.5661646,18.0758118 35.7971646,18.3068118 C35.9181646,18.4278118 35.9841646,18.4828118 36.0501646,18.4828118 Z M41.7921646,11.3548118 L38.0191646,11.3548118 L38.0191646,10.0238118 L41.7921646,10.0238118 L41.7921646,11.3548118 Z M41.7921646,13.8188118 L37.9751646,13.8188118 C37.9971646,13.4008118 38.0081646,12.9388118 38.0191646,12.4218118 L41.7921646,12.4218118 L41.7921646,13.8188118 Z" id="次の月" fill="#FFFFFF" fill-rule="nonzero"></path>
            </g>
        </g>
    </g>
</svg>