<?xml version="1.0" encoding="UTF-8"?>
<svg width="52px" height="27px" viewBox="0 0 52 27" version="1.1" xmlns="http://www.w3.org/2000/svg" xmlns:xlink="http://www.w3.org/1999/xlink">
    <!-- Generator: Sketch 61 (89581) - https://sketch.com -->
    <title>Group 35</title>
    <desc>Created with Sketch.</desc>
    <g id="Page-1" stroke="none" stroke-width="1" fill="none" fill-rule="evenodd">
        <g id="access" transform="translate(-1254.000000, -2185.000000)">
            <rect fill="#F9F9F9" x="0" y="0" width="1440" height="3985"></rect>
            <g id="Group-35" transform="translate(1253.760243, 2185.000000)">
                <rect id="Rectangle" fill="#105670" x="0.239757208" y="0" width="52" height="27" rx="3"></rect>
                <path d="M19.2721646,11.0468118 C19.3821646,11.0468118 19.3931646,11.0358118 19.3931646,10.9148118 L19.3931646,10.0788118 C19.3931646,9.96881184 19.3821646,9.95781184 19.2721646,9.95781184 C19.2061646,9.95781184 18.8651646,9.97981184 17.8861646,9.97981184 L16.4341646,9.97981184 C16.6101646,9.74881184 16.7641646,9.52881184 16.8851646,9.34181184 C17.0501646,9.07781184 17.1051646,9.01181184 17.1821646,8.95681184 C17.2371646,8.91281184 17.2811646,8.86881184 17.2811646,8.81381184 C17.2811646,8.73681184 17.2261646,8.70381184 17.1271646,8.65981184 C16.8191646,8.54981184 16.4121646,8.45081184 16.0271646,8.36281184 C15.9831646,8.54981184 15.9171646,8.71481184 15.8181646,8.91281184 C15.6201646,9.27581184 15.4001646,9.61681184 15.1471646,9.97981184 L12.6721646,9.97981184 L13.3651646,9.70481184 C13.5301646,9.63881184 13.5301646,9.62781184 13.4861646,9.52881184 C13.2991646,9.12181184 13.1011646,8.81381184 12.8481646,8.47281184 C12.7821646,8.37381184 12.7711646,8.37381184 12.6171646,8.42881184 L11.8691646,8.71481184 C11.7481646,8.76981184 11.7261646,8.79181184 11.7921646,8.89081184 C12.0671646,9.29781184 12.2211646,9.58381184 12.4081646,9.97981184 L11.1101646,9.97981184 C10.1421646,9.97981184 9.80116464,9.95781184 9.73516464,9.95781184 C9.62516464,9.95781184 9.61416464,9.96881184 9.61416464,10.0788118 L9.61416464,10.9148118 C9.61416464,11.0358118 9.62516464,11.0468118 9.73516464,11.0468118 C9.80116464,11.0468118 10.1421646,11.0248118 11.1101646,11.0248118 L17.8861646,11.0248118 C18.8651646,11.0248118 19.2061646,11.0468118 19.2721646,11.0468118 Z M18.2161646,18.1528118 C18.5021646,17.9658118 18.6011646,17.6908118 18.6011646,17.1518118 C18.6011646,16.6018118 18.5791646,16.0188118 18.5791646,15.2378118 L18.5791646,13.1148118 C18.5791646,12.4218118 18.5901646,12.1908118 18.6451646,12.0588118 C18.6781646,11.9818118 18.7221646,11.9158118 18.7221646,11.8278118 C18.7221646,11.7728118 18.6561646,11.7178118 18.5461646,11.7068118 C18.1721646,11.6628118 17.8201646,11.6408118 17.4131646,11.6298118 C17.4791646,12.0148118 17.5011646,12.4878118 17.5011646,13.1148118 L17.5011646,16.9098118 C17.5011646,17.2618118 17.3691646,17.3388118 17.0281646,17.3388118 C16.6101646,17.3388118 16.3021646,17.3278118 15.9171646,17.2838118 C16.0601646,17.5038118 16.1481646,17.7458118 16.2141646,18.0538118 C16.2841646,18.3738118 16.2905283,18.3938118 16.5473051,18.3948118 L16.6321646,18.3948118 C17.6221646,18.3948118 17.9191646,18.3398118 18.2161646,18.1528118 Z M11.3851646,18.5158118 C11.4951646,18.5158118 11.5061646,18.5048118 11.5061646,18.3948118 C11.5061646,18.3437404 11.4871953,17.9607047 11.4844853,17.1840542 L11.4841646,16.2278118 L13.2441646,16.2278118 L13.2441646,17.1408118 C13.2441646,17.3608118 13.1781646,17.4268118 12.8811646,17.4268118 C12.5951646,17.4268118 12.4411646,17.4158118 12.1441646,17.3938118 C12.2651646,17.5808118 12.3421646,17.8228118 12.3971646,18.0978118 C12.4521646,18.4388118 12.4521646,18.4278118 12.8041646,18.4278118 C13.6071646,18.4168118 13.8821646,18.3398118 14.0471646,18.1968118 C14.2781646,17.9988118 14.3111646,17.7018118 14.3111646,17.2838118 C14.3111646,16.9538118 14.2891646,16.3708118 14.2891646,15.8098118 L14.2891646,13.4228118 C14.2891646,12.4438118 14.3111646,11.9378118 14.3111646,11.8718118 C14.3111646,11.7728118 14.3001646,11.7618118 14.1901646,11.7618118 C14.1241646,11.7618118 13.8601646,11.7838118 13.0461646,11.7838118 L11.6601646,11.7838118 C10.8461646,11.7838118 10.5821646,11.7618118 10.5051646,11.7618118 C10.3951646,11.7618118 10.3841646,11.7728118 10.3841646,11.8718118 C10.3841646,11.9433118 10.403134,12.3278067 10.4058439,13.1397903 L10.4061646,16.9648118 C10.4061646,17.9108118 10.3841646,18.3288118 10.3841646,18.3948118 C10.3841646,18.5048118 10.3951646,18.5158118 10.5051646,18.5158118 L11.3851646,18.5158118 Z M16.4231646,16.0518118 C16.4231646,15.9913118 16.4046785,15.6904924 16.4015975,15.0730983 L16.4013683,13.2805757 C16.4023869,12.8123118 16.408498,12.6381452 16.4451646,12.5098118 C16.4671646,12.4328118 16.5111646,12.3448118 16.5111646,12.2568118 C16.5111646,12.1908118 16.4671646,12.1468118 16.3571646,12.1358118 C15.9831646,12.0918118 15.6531646,12.0588118 15.2571646,12.0478118 C15.3231646,12.5648118 15.3341646,12.9718118 15.3341646,13.6098118 L15.3341646,14.8968118 C15.3341646,15.6338118 15.3121646,15.9748118 15.3121646,16.0518118 C15.3121646,16.1434785 15.3198035,16.1587563 15.3860072,16.1613026 L16.3021646,16.1618118 C16.4121646,16.1618118 16.4231646,16.1618118 16.4231646,16.0518118 Z M13.2441646,13.6098118 L11.4841646,13.6098118 L11.4841646,12.7628118 L13.2441646,12.7628118 L13.2441646,13.6098118 Z M13.2441646,15.3478118 L11.4841646,15.3478118 L11.4841646,14.5008118 L13.2441646,14.5008118 L13.2441646,15.3478118 Z M28.3101646,17.6248118 C30.5431646,16.9538118 31.6981646,15.6668118 31.6981646,13.6208118 C31.6981646,11.4318118 30.1471646,9.80381184 27.5071646,9.80381184 C26.0221646,9.80381184 24.8561646,10.2878118 23.9321646,11.2118118 C23.1401646,12.0038118 22.6891646,13.0158118 22.6891646,14.0718118 C22.6891646,15.8648118 23.6681646,16.8988118 24.6361646,16.8988118 C25.4611646,16.8988118 26.0331646,16.4588118 26.5061646,15.6338118 C27.1661646,14.4788118 27.6281646,12.7628118 27.8811646,10.8928118 L27.9251646,10.8928118 C29.3991646,10.8928118 30.3891646,12.1358118 30.3891646,13.4448118 C30.3891646,15.5238118 28.9261646,16.2938118 27.0671646,16.7338118 C27.4851646,16.9868118 27.7161646,17.2398118 27.8371646,17.4268118 C27.9801646,17.6468118 28.0791646,17.6908118 28.3101646,17.6248118 Z M24.6141646,15.5678118 C24.2731646,15.5678118 23.8661646,15.0068118 23.8661646,13.9948118 C23.8661646,13.2908118 24.1961646,12.5538118 24.7241646,11.9598118 C25.2191646,11.4208118 25.8351646,11.1128118 26.6051646,10.9588118 C26.4181646,12.4218118 25.9231646,14.0058118 25.4391646,14.8968118 C25.1421646,15.4248118 24.9001646,15.5678118 24.6141646,15.5678118 Z M36.0501646,18.4828118 C36.1161646,18.4828118 36.1711646,18.4168118 36.2811646,18.2958118 C37.1831646,17.2728118 37.6561646,16.4148118 37.8651646,14.8858118 L41.7921646,14.8858118 L41.7921646,16.8108118 C41.7921646,17.0528118 41.6711646,17.1958118 41.4071646,17.1958118 C40.9781646,17.1958118 40.6261646,17.1848118 40.1531646,17.1408118 C40.2741646,17.3608118 40.3951646,17.7458118 40.4391646,18.0648118 C40.4791646,18.3848118 40.5009828,18.4048118 40.7608175,18.4058036 L40.8461646,18.4058118 C42.0121646,18.4058118 42.3861646,18.3508118 42.6721646,18.0868118 C42.9471646,17.8228118 43.0241646,17.5368118 43.0241646,17.0638118 C43.0241646,16.4588118 42.9911646,15.6228118 42.9911646,14.8638118 L42.9911646,10.5408118 C42.9911646,9.60581184 43.0131646,9.11081184 43.0131646,9.04481184 C43.0131646,8.92381184 43.0021646,8.91281184 42.8921646,8.91281184 C42.8151646,8.91281184 42.4631646,8.93481184 41.4401646,8.93481184 L38.3821646,8.93481184 C37.3591646,8.93481184 36.9961646,8.91281184 36.9191646,8.91281184 C36.8091646,8.91281184 36.7981646,8.92381184 36.7981646,9.04481184 C36.7981646,9.10609755 36.817134,9.53728633 36.8198439,10.3471854 L36.8201646,12.1578118 C36.8201646,15.5018118 36.4571646,16.4368118 35.0051646,17.7898118 C35.2691646,17.8998118 35.5661646,18.0758118 35.7971646,18.3068118 C35.9181646,18.4278118 35.9841646,18.4828118 36.0501646,18.4828118 Z M41.7921646,11.3548118 L38.0191646,11.3548118 L38.0191646,10.0238118 L41.7921646,10.0238118 L41.7921646,11.3548118 Z M41.7921646,13.8188118 L37.9751646,13.8188118 C37.9971646,13.4008118 38.0081646,12.9388118 38.0191646,12.4218118 L41.7921646,12.4218118 L41.7921646,13.8188118 Z" id="前の月" fill="#FFFFFF" fill-rule="nonzero"></path>
            </g>
        </g>
    </g>
</svg>