<?xml version="1.0" encoding="UTF-8"?>
<svg width="24px" height="23px" viewBox="0 0 24 23" version="1.1" xmlns="http://www.w3.org/2000/svg" xmlns:xlink="http://www.w3.org/1999/xlink">
    <!-- Generator: Sketch 61 (89581) - https://sketch.com -->
    <title>ico-facebook</title>
    <desc>Created with Sketch.</desc>
    <defs>
        <polygon id="path-1" points="0.00123046875 0.0008203125 21 0.0008203125 21 20.8724414 0.00123046875 20.8724414"></polygon>
    </defs>
    <g id="Symbols" stroke="none" stroke-width="1" fill="none" fill-rule="evenodd">
        <g id="f_logo_RGB-Black_1024" transform="translate(1.271484, 1.000000)">
            <g id="Group-3">
                <mask id="mask-2" fill="white">
                    <use xlink:href="#path-1"></use>
                </mask>
                <g id="Clip-2"></g>
                <path d="M21,10.5 C21,4.70100586 16.2989941,0 10.5,0 C4.70100586,0 0,4.70100586 0,10.5 C0,15.7408535 3.83969824,20.0847363 8.859375,20.8724414 L8.859375,13.5351563 L6.19335938,13.5351563 L6.19335938,10.5 L8.859375,10.5 L8.859375,8.18671875 C8.859375,5.55515625 10.4269512,4.1015625 12.8253809,4.1015625 C13.974167,4.1015625 15.1757812,4.30664063 15.1757812,4.30664063 L15.1757812,6.890625 L13.8517559,6.890625 C12.5473975,6.890625 12.140625,7.70000684 12.140625,8.53036816 L12.140625,10.5 L15.0527344,10.5 L14.587207,13.5351563 L12.140625,13.5351563 L12.140625,20.8724414 C17.1603018,20.0847363 21,15.7408535 21,10.5" id="Fill-1" fill="#105670" mask="url(#mask-2)"></path>
            </g>
        </g>
    </g>
</svg>