<?xml version="1.0" encoding="UTF-8"?>
<svg width="24px" height="23px" viewBox="0 0 24 23" version="1.1" xmlns="http://www.w3.org/2000/svg" xmlns:xlink="http://www.w3.org/1999/xlink">
    <!-- Generator: Sketch 61 (89581) - https://sketch.com -->
    <title>ico-instagram</title>
    <desc>Created with Sketch.</desc>
    <g id="Symbols" stroke="none" stroke-width="1" fill="none" fill-rule="evenodd">
        <g id="Group-4" transform="translate(1.271484, 1.000000)" fill="#105670">
            <g id="Group">
                <path d="M10.4967083,0 C7.64595833,0 7.2885,0.0120833333 6.16891667,0.0631666667 C5.05166667,0.114125 4.288625,0.291583333 3.62095833,0.551083333 C2.93070833,0.819291667 2.34533333,1.17820833 1.76175,1.76175 C1.17820833,2.34533333 0.819291667,2.93070833 0.551083333,3.62095833 C0.291583333,4.288625 0.114125,5.05166667 0.0631666667,6.16891667 C0.0120833333,7.2885 0,7.64595833 0,10.4967083 C0,13.3474167 0.0120833333,13.704875 0.0631666667,14.8244583 C0.114125,15.9417083 0.291583333,16.70475 0.551083333,17.3724167 C0.819291667,18.0626667 1.17820833,18.6480417 1.76175,19.231625 C2.34533333,19.8151667 2.93070833,20.1740833 3.62095833,20.4423333 C4.288625,20.7017917 5.05166667,20.87925 6.16891667,20.9302083 C7.2885,20.9812917 7.64595833,20.993375 10.4967083,20.993375 C13.3474167,20.993375 13.704875,20.9812917 14.8244583,20.9302083 C15.9417083,20.87925 16.70475,20.7017917 17.3724167,20.4423333 C18.0626667,20.1740833 18.6480417,19.8151667 19.231625,19.231625 C19.8151667,18.6480417 20.1740833,18.0626667 20.4423333,17.3724167 C20.7017917,16.70475 20.87925,15.9417083 20.9302083,14.8244583 C20.9812917,13.704875 20.993375,13.3474167 20.993375,10.4967083 C20.993375,7.64595833 20.9812917,7.2885 20.9302083,6.16891667 C20.87925,5.05166667 20.7017917,4.288625 20.4423333,3.62095833 C20.1740833,2.93070833 19.8151667,2.34533333 19.231625,1.76175 C18.6480417,1.17820833 18.0626667,0.819291667 17.3724167,0.551083333 C16.70475,0.291583333 15.9417083,0.114125 14.8244583,0.0631666667 C13.704875,0.0120833333 13.3474167,0 10.4967083,0 Z M10.4967083,1.89129167 C13.2994167,1.89129167 13.6314167,1.902 14.73825,1.9525 C15.7616667,1.99916667 16.3174583,2.17016667 16.6873333,2.31391667 C17.1772917,2.50433333 17.5269583,2.73179167 17.89425,3.099125 C18.2615833,3.46641667 18.4890417,3.81608333 18.6794583,4.30604167 C18.8232083,4.67591667 18.9942083,5.23170833 19.040875,6.255125 C19.091375,7.36195833 19.1020833,7.69395833 19.1020833,10.4967083 C19.1020833,13.2994167 19.091375,13.6314167 19.040875,14.73825 C18.9942083,15.7616667 18.8232083,16.3174583 18.6794583,16.6873333 C18.4890417,17.1772917 18.2615833,17.5269583 17.89425,17.89425 C17.5269583,18.2615833 17.1772917,18.4890417 16.6873333,18.6794583 C16.3174583,18.8232083 15.7616667,18.9942083 14.73825,19.040875 C13.6315833,19.091375 13.299625,19.1020833 10.4967083,19.1020833 C7.69375,19.1020833 7.36183333,19.091375 6.255125,19.040875 C5.23170833,18.9942083 4.67591667,18.8232083 4.30604167,18.6794583 C3.81608333,18.4890417 3.46641667,18.2615833 3.099125,17.89425 C2.73183333,17.5269583 2.50433333,17.1772917 2.31391667,16.6873333 C2.17016667,16.3174583 1.99916667,15.7616667 1.9525,14.73825 C1.902,13.6314167 1.89129167,13.2994167 1.89129167,10.4967083 C1.89129167,7.69395833 1.902,7.36195833 1.9525,6.255125 C1.99916667,5.23170833 2.17016667,4.67591667 2.31391667,4.30604167 C2.50433333,3.81608333 2.73179167,3.46641667 3.099125,3.099125 C3.46641667,2.73179167 3.81608333,2.50433333 4.30604167,2.31391667 C4.67591667,2.17016667 5.23170833,1.99916667 6.255125,1.9525 C7.36195833,1.902 7.69395833,1.89129167 10.4967083,1.89129167 L10.4967083,1.89129167 Z" id="Fill-1"></path>
                <path d="M10.4967083,13.9955833 C8.56429167,13.9955833 6.99779167,12.4290833 6.99779167,10.4967083 C6.99779167,8.56429167 8.56429167,6.99779167 10.4967083,6.99779167 C12.4290833,6.99779167 13.9955833,8.56429167 13.9955833,10.4967083 C13.9955833,12.4290833 12.4290833,13.9955833 10.4967083,13.9955833 Z M10.4967083,5.1065 C7.51975,5.1065 5.1065,7.51975 5.1065,10.4967083 C5.1065,13.473625 7.51975,15.886875 10.4967083,15.886875 C13.473625,15.886875 15.886875,13.473625 15.886875,10.4967083 C15.886875,7.51975 13.473625,5.1065 10.4967083,5.1065 L10.4967083,5.1065 Z" id="Fill-4"></path>
                <path d="M17.3594583,4.89354167 C17.3594583,5.58920833 16.7955,6.153125 16.0998333,6.153125 C15.4042083,6.153125 14.84025,5.58920833 14.84025,4.89354167 C14.84025,4.197875 15.4042083,3.63391667 16.0998333,3.63391667 C16.7955,3.63391667 17.3594583,4.197875 17.3594583,4.89354167" id="Fill-5"></path>
            </g>
        </g>
    </g>
</svg>