<?xml version="1.0" encoding="UTF-8"?>
<svg width="24px" height="23px" viewBox="0 0 24 23" version="1.1" xmlns="http://www.w3.org/2000/svg" xmlns:xlink="http://www.w3.org/1999/xlink">
    <!-- Generator: Sketch 61 (89581) - https://sketch.com -->
    <title>ico-twitter</title>
    <desc>Created with Sketch.</desc>
    <g id="Symbols" stroke="none" stroke-width="1" fill="none" fill-rule="evenodd">
        <g id="Fill-2" transform="translate(0.771484, 3.000000)" fill="#105670">
            <path d="M22,2.116125 C21.1908125,2.475 20.3204375,2.7176875 19.4074375,2.827 C20.3396875,2.2680625 21.055375,1.3839375 21.39225,0.33 C20.5205,0.847 19.553875,1.222375 18.5260625,1.4251875 C17.7024375,0.5479375 16.5295625,0 15.2315625,0 C12.7386875,0 10.718125,2.0205625 10.718125,4.5134375 C10.718125,4.8668125 10.758,5.21125 10.835,5.5419375 C7.0833125,5.3535625 3.757875,3.5564375 1.53175,0.8256875 C1.1433125,1.4925625 0.9205625,2.2680625 0.9205625,3.095125 C0.9205625,4.6605625 1.717375,6.0424375 2.9280625,6.851625 C2.1883125,6.82825 1.4925625,6.6254375 0.884125,6.2871875 C0.8834375,6.3064375 0.8834375,6.325 0.8834375,6.34425 C0.8834375,8.5311875 2.43925,10.355125 4.5045,10.7696875 C4.1256875,10.8728125 3.7269375,10.9278125 3.315125,10.9278125 C3.0243125,10.9278125 2.74175,10.899625 2.4660625,10.847375 C3.040125,12.640375 4.7073125,13.94525 6.6825,13.9816875 C5.1376875,15.192375 3.191375,15.9135625 1.076625,15.9135625 C0.71225,15.9135625 0.353375,15.89225 0,15.851 C1.9971875,17.131125 4.36975,17.8784375 6.919,17.8784375 C15.22125,17.8784375 19.7608125,11.0006875 19.7608125,5.036625 C19.7608125,4.8406875 19.7566875,4.646125 19.74775,4.45225 C20.6298125,3.8163125 21.395,3.0215625 22,2.116125" id="Fill-1"></path>
        </g>
    </g>
</svg>