<?xml version="1.0" encoding="UTF-8"?>
<svg width="58px" height="29px" viewBox="0 0 58 29" version="1.1" xmlns="http://www.w3.org/2000/svg" xmlns:xlink="http://www.w3.org/1999/xlink">
    <!-- Generator: Sketch 61 (89581) - https://sketch.com -->
    <title>ico-truck2</title>
    <desc>Created with Sketch.</desc>
    <defs>
        <polygon id="path-1" points="1.69341857 2.01047586 44.8969655 2.01047586 44.8969655 28.4827586 1.69341857 28.4827586"></polygon>
        <polygon id="path-3" points="0 1.50226207 11.2860273 1.50226207 11.2860273 3.53674483 0 3.53674483"></polygon>
    </defs>
    <g id="Symbols" stroke="none" stroke-width="1" fill="none" fill-rule="evenodd">
        <g id="Group-11" transform="translate(0.500000, 0.500100)">
            <g id="Group-3" transform="translate(12.206897, 0.023803)">
                <mask id="mask-2" fill="white">
                    <use xlink:href="#path-1"></use>
                </mask>
                <g id="Clip-2"></g>
                <path d="M40.3505069,15.4970621 L35.3070241,15.4970621 L36.3364724,9.89002759 L39.6445414,9.89002759 L40.6271966,13.9874759 L40.3505069,15.4970621 Z M34.7251621,26.2289586 C33.7770931,26.2289586 33.1484379,25.4578897 33.3234034,24.5138897 C33.4963345,23.5637862 34.4077828,22.7927172 35.3558517,22.7927172 C36.3059552,22.7927172 36.9346103,23.5637862 36.7596448,24.5138897 C36.5846793,25.4578897 35.6752655,26.2289586 34.7251621,26.2289586 L34.7251621,26.2289586 Z M12.2258172,26.2289586 C11.2757138,26.2289586 10.6470586,25.4578897 10.8220241,24.5138897 C10.9949552,23.5637862 11.9064034,22.7927172 12.8544724,22.7927172 C13.8045759,22.7927172 14.433231,23.5637862 14.2582655,24.5138897 C14.0833,25.4578897 13.1738862,26.2289586 12.2258172,26.2289586 L12.2258172,26.2289586 Z M44.7368517,16.1765793 L42.8142655,8.15054483 C42.6331966,7.39168276 41.8458517,6.77116552 41.0686793,6.77116552 L33.9357828,6.77116552 L34.5542655,3.40613103 C34.6946448,2.63913103 34.1717828,2.01047586 33.3946103,2.01047586 L7.00736897,2.01047586 C6.23019655,2.01047586 5.47540345,2.63913103 5.33705862,3.40613103 L1.71567931,23.1182345 C1.57733448,23.8852345 2.09816207,24.5138897 2.87940345,24.5138897 L8.56985172,24.5138897 C8.16702414,26.7070621 9.61964483,28.4831655 11.8107828,28.4831655 C14.0039552,28.4831655 16.1076103,26.7070621 16.5104379,24.5138897 L26.0745414,24.5138897 L29.2625759,24.5138897 L31.0691966,24.5138897 C30.6684034,26.7070621 32.1189897,28.4831655 34.3101276,28.4831655 C36.5053345,28.4831655 38.6089897,26.7070621 39.0118172,24.5138897 L42.3727828,24.5138897 C43.1499552,24.5138897 43.9047483,23.8852345 44.0451276,23.1182345 L44.8121276,18.9455103 C44.9504724,18.1825793 44.9179207,16.9354414 44.7368517,16.1765793 L44.7368517,16.1765793 Z" id="Fill-1" fill="#105678" mask="url(#mask-2)"></path>
            </g>
            <path d="M12.5641517,9.08355862 L2.29611724,9.08355862 C2.0173931,9.08355862 1.83632414,8.8618 1.88718621,8.58307586 C1.93601379,8.30842069 2.20253103,8.08666207 2.47718621,8.08666207 L12.7472552,8.08666207 C13.0239448,8.08666207 13.2050138,8.30842069 13.1561862,8.58307586 C13.1053241,8.8618 12.8408414,9.08355862 12.5641517,9.08355862" id="Fill-4" fill="#105678"></path>
            <path d="M11.6244241,14.2017069 L1.35638966,14.2017069 C1.0797,14.2017069 0.896596552,13.9758793 0.947458621,13.7012241 C0.99832069,13.426569 1.26280345,13.2007414 1.53745862,13.2007414 L11.8075276,13.2007414 C12.0842172,13.2007414 12.2652862,13.426569 12.2164586,13.7012241 C12.1655966,13.9758793 11.9011138,14.2017069 11.6244241,14.2017069" id="Fill-6" fill="#105678"></path>
            <g id="Group-10" transform="translate(0.000000, 16.299666)">
                <mask id="mask-4" fill="white">
                    <use xlink:href="#path-3"></use>
                </mask>
                <g id="Clip-9"></g>
                <path d="M10.6855103,3.01998621 L0.417475862,3.01998621 C0.138751724,3.01998621 -0.0423172414,2.79415862 0.00854482759,2.51950345 C0.0594068966,2.24077931 0.323889655,2.01902069 0.60057931,2.01902069 L10.8686138,2.01902069 C11.1453034,2.01902069 11.3284069,2.24077931 11.2775448,2.51950345 C11.2266828,2.79415862 10.9601655,3.01998621 10.6855103,3.01998621" id="Fill-8" fill="#105678" mask="url(#mask-4)"></path>
            </g>
        </g>
    </g>
</svg>