<?xml version="1.0" encoding="UTF-8"?>
<svg width="40px" height="29px" viewBox="0 0 40 29" version="1.1" xmlns="http://www.w3.org/2000/svg" xmlns:xlink="http://www.w3.org/1999/xlink">
    <!-- Generator: Sketch 61 (89581) - https://sketch.com -->
    <title>ico-coffee</title>
    <desc>Created with Sketch.</desc>
    <defs>
        <polygon id="path-1" points="0.000142857143 0.0767142857 39.6642857 0.0767142857 39.6642857 4.28528571 0.000142857143 4.28528571"></polygon>
        <polygon id="path-3" points="0.317857143 0.254285714 30.7292862 0.254285714 30.7292862 19.5592857 0.317857143 19.5592857"></polygon>
    </defs>
    <g id="Symbols" stroke="none" stroke-width="1" fill="none" fill-rule="evenodd">
        <g id="Group-9" transform="translate(0.000000, 4.000000)">
            <g id="Group-3" transform="translate(0.000000, 20.603000)">
                <mask id="mask-2" fill="white">
                    <use xlink:href="#path-1"></use>
                </mask>
                <g id="Clip-2"></g>
                <path d="M39.6644286,0.0767142857 L0.000142857143,0.0767142857 C0.00585714286,2.94671429 2.193,4.27814286 3.95157143,4.28528571 L35.713,4.28528571 C37.813,4.27814286 39.6544286,2.62671429 39.6644286,0.0767142857" id="Fill-1" fill="#105678" mask="url(#mask-2)"></path>
            </g>
            <g id="Group-6" transform="translate(8.142857, 0.174429)">
                <mask id="mask-4" fill="white">
                    <use xlink:href="#path-3"></use>
                </mask>
                <g id="Clip-5"></g>
                <path d="M23.1692857,11.5278571 L23.1692857,3.17356658 L23.9835714,3.17356658 C26.985,3.16928571 27.9478571,6.00642857 27.935,7.38357143 C27.9364286,9.60357143 26.2921429,11.735 23.1692857,11.5278571 M23.9835714,0.25356714 L0.317857143,0.25356714 L0.317857143,15.7792857 C0.322142857,17.8878571 2.13785714,19.5564286 4.09928571,19.5592857 L19.4521429,19.5592857 C21.665,19.5564286 23.175,17.695 23.1692857,15.7792857 L23.1692857,14.4907143 C27.5492857,14.4864286 30.7307143,11.1978571 30.7292862,7.36071429 C30.7307143,3.45785714 27.6121429,0.249285714 23.9835714,0.25356714" id="Fill-4" fill="#105678" mask="url(#mask-4)"></path>
            </g>
        </g>
    </g>
</svg>