<?xml version="1.0" encoding="UTF-8"?>
<svg width="34px" height="29px" viewBox="0 0 34 29" version="1.1" xmlns="http://www.w3.org/2000/svg" xmlns:xlink="http://www.w3.org/1999/xlink">
    <!-- Generator: Sketch 61 (89581) - https://sketch.com -->
    <title>ico-gift</title>
    <desc>Created with Sketch.</desc>
    <g id="Symbols" stroke="none" stroke-width="1" fill="none" fill-rule="evenodd">
        <g id="Group-5" transform="translate(0.500000, 0.017341)" fill="#105678">
            <path d="M25.8035516,3.64064516 L20.5363258,3.64064516 C23.0890355,2.29083871 24.6474871,2.04387097 25.4437452,2.04387097 C25.9972935,2.04387097 26.4422613,2.15777419 26.6956161,2.36854839 C26.8435839,2.48883871 26.9181,2.63893548 26.9181,2.80925806 C26.9181,3.21058065 26.5274226,3.64064516 25.8035516,3.64064516 L25.8035516,3.64064516 Z M6.68058387,3.64064516 C5.9567129,3.64064516 5.56603548,3.21058065 5.56603548,2.80925806 C5.56603548,2.63893548 5.64161613,2.48883871 5.78851935,2.36854839 C6.04293871,2.15777419 6.48790645,2.04387097 7.04145484,2.04387097 C7.8377129,2.04387097 9.3951,2.29083871 11.9488742,3.64064516 L6.68058387,3.64064516 Z M27.9943258,0.787741935 C27.3662613,0.272516129 26.4837774,7.56384203e-14 25.4437452,7.56384203e-14 C23.5701968,7.56384203e-14 21.2091,0.846290323 18.4190032,2.48883871 C18.1017774,1.49458065 17.2459065,1.00596774 16.2420677,1.00596774 C15.238229,1.00596774 14.3834226,1.49458065 14.0651323,2.48883871 C11.2761,0.846290323 8.91393871,7.56384203e-14 7.04145484,7.56384203e-14 C6.00035806,7.56384203e-14 5.11893871,0.272516129 4.49087419,0.787741935 C3.86600323,1.30403226 3.52216452,2.0193871 3.52216452,2.80925806 C3.52216452,4.22293548 4.70377742,5.68451613 6.68058387,5.68451613 L13.5680032,5.68451613 L18.9171968,5.68451613 L25.8035516,5.68451613 C27.7814226,5.68451613 28.961971,4.22293548 28.961971,2.80925806 C28.961971,2.0193871 28.6191968,1.30403226 27.9943258,0.787741935 L27.9943258,0.787741935 Z" id="Fill-1"></path>
            <path d="M15.3418065,15.0924968 C15.3418065,14.7720774 15.0916452,14.5123355 14.7871935,14.5123355 L2.51332258,14.5123355 C2.20780645,14.5123355 1.95870968,14.7720774 1.95870968,15.0924968 L1.95870968,28.0700129 C1.95870968,28.3904323 2.20780645,28.6501742 2.51332258,28.6501742 L14.7871935,28.6501742 C15.0916452,28.6501742 15.3418065,28.3904323 15.3418065,28.0700129 L15.3418065,15.0924968 Z" id="Fill-3"></path>
            <path d="M15.3418065,7.76777419 C15.3418065,7.44735484 15.0916452,7.1876129 14.7871935,7.1876129 L0.554612903,7.1876129 C0.249096774,7.1876129 1.38985597e-13,7.44735484 1.38985597e-13,7.76777419 L1.38985597e-13,12.4005484 C1.38985597e-13,12.7177742 0.249096774,12.9796452 0.554612903,12.9796452 L14.7871935,12.9796452 C15.0916452,12.9796452 15.3418065,12.7177742 15.3418065,12.4005484 L15.3418065,7.76777419 Z" id="Fill-5"></path>
            <path d="M17.5014968,28.0704387 C17.5014968,28.3908581 17.7516581,28.6506 18.0561097,28.6506 L30.3299806,28.6506 C30.6344323,28.6506 30.8845935,28.3908581 30.8845935,28.0704387 L30.8845935,15.0929226 C30.8845935,14.7725032 30.6344323,14.5127613 30.3299806,14.5127613 L18.0561097,14.5127613 C17.7516581,14.5127613 17.5014968,14.7725032 17.5014968,15.0929226 L17.5014968,28.0704387 Z" id="Fill-7"></path>
            <path d="M18.0561097,7.1876129 C17.7516581,7.1876129 17.5014968,7.44735484 17.5014968,7.76777419 L17.5014968,12.3994839 C17.5014968,12.7177742 17.7516581,12.9796452 18.0561097,12.9796452 L31.9640129,12.9796452 C32.269529,12.9796452 32.5186258,12.7177742 32.5186258,12.3994839 L32.5186258,7.76777419 C32.5186258,7.44735484 32.269529,7.1876129 31.9640129,7.1876129 L18.0561097,7.1876129 Z" id="Fill-9"></path>
        </g>
    </g>
</svg>