<?xml version="1.0" encoding="UTF-8"?>
<svg width="174px" height="42px" viewBox="0 0 174 42" version="1.1" xmlns="http://www.w3.org/2000/svg" xmlns:xlink="http://www.w3.org/1999/xlink">
    <!-- Generator: Sketch 61 (89581) - https://sketch.com -->
    <title>logo</title>
    <desc>Created with Sketch.</desc>
    <g id="Symbols" stroke="none" stroke-width="1" fill="none" fill-rule="evenodd">
        <g id="logo/set" transform="translate(0.271484, 0.000000)" fill="#105678">
            <g id="Group">
                <g id="logo/type" transform="translate(52.435900, 5.792700)">
                    <g id="Group-2">
                        <path d="M1.0957,14.7831 C0.8877,14.7831 0.7217,14.6171 0.7217,14.4101 L0.7217,0.6251 C0.7217,0.4161 0.8877,0.2521 1.0957,0.2521 L3.6907,0.2521 C3.8987,0.2521 4.0637,0.4161 4.0637,0.6251 L4.0637,5.7731 L8.6327,0.5431 C8.7987,0.3531 9.0277,0.2521 9.2547,0.2521 L12.6587,0.2521 C12.8057,0.2521 12.8877,0.4161 12.7837,0.5191 L6.6807,7.2891 L13.2407,14.5121 C13.3247,14.6171 13.2607,14.7831 13.1167,14.7831 L9.7117,14.7831 C9.4827,14.7831 9.2547,14.6781 9.0897,14.5121 L4.0637,8.8041 L4.0637,14.4101 C4.0637,14.6171 3.8987,14.7831 3.6907,14.7831 L1.0957,14.7831 Z" id="Fill-84"></path>
                        <path d="M19.4287,9.2402 L21.6077,9.2402 L20.5287,6.5412 L19.4287,9.2402 Z M27.4017,14.4512 C27.4837,14.5952 27.3597,14.7832 27.1927,14.7832 L24.2247,14.7832 C23.9957,14.7832 23.7897,14.6382 23.7057,14.4292 L22.6677,11.8342 L18.3907,11.8342 L17.3517,14.4292 C17.2687,14.6382 17.0617,14.7832 16.8337,14.7832 L13.8647,14.7832 C13.6987,14.7832 13.5747,14.5952 13.6367,14.4512 L20.0107,0.4162 C20.0937,0.2092 20.2997,0.0842 20.5087,0.0842 C20.7147,0.0842 20.9237,0.2092 21.0057,0.4162 L27.4017,14.4512 Z" id="Fill-86"></path>
                        <path d="M35.6831,5.0468 C35.6831,4.4448 35.3531,3.3218 33.8571,3.3218 L31.4901,3.3218 L31.4901,6.7888 L33.9411,6.7888 C35.3531,6.7478 35.6831,5.5858 35.6831,5.0468 M36.3281,9.3438 L38.7141,14.4508 C38.7981,14.5958 38.6731,14.7828 38.5071,14.7828 L35.6221,14.7828 C35.3941,14.7828 35.1871,14.6578 35.0811,14.4508 L32.9651,9.9038 L31.4901,9.9038 L31.4901,14.4098 C31.4901,14.6168 31.3241,14.7828 31.1171,14.7828 L28.5641,14.7828 C28.3561,14.7828 28.1901,14.6168 28.1901,14.4098 L28.1901,0.6248 C28.1901,0.4158 28.3561,0.2518 28.5641,0.2518 L33.7551,0.2518 C37.7801,0.2518 39.0071,3.0718 39.0071,5.0468 C39.0071,7.1018 37.8861,8.5758 36.3281,9.3438" id="Fill-88"></path>
                        <path d="M44.4033,14.4101 C44.4033,14.6171 44.2393,14.7831 44.0303,14.7831 L41.4563,14.7831 C41.2493,14.7831 41.0833,14.6171 41.0833,14.4101 L41.0833,0.6251 C41.0833,0.4161 41.2493,0.2521 41.4563,0.2521 L44.0303,0.2521 C44.2393,0.2521 44.4033,0.4161 44.4033,0.6251 L44.4033,14.4101 Z" id="Fill-90"></path>
                        <path d="M57.1103,7.496 C57.1103,6.416 56.6313,3.135 53.2923,3.135 C49.9263,3.135 49.4483,6.416 49.4483,7.496 C49.4483,8.576 49.9263,11.894 53.2923,11.894 C56.6313,11.894 57.1103,8.576 57.1103,7.496 M60.4933,7.496 C60.4933,10.609 58.7923,15.012 53.2923,15.012 C47.7683,15.012 46.0653,10.609 46.0653,7.496 C46.0653,4.465 47.7683,0 53.2923,0 C58.7923,0 60.4933,4.465 60.4933,7.496" id="Fill-92"></path>
                        <path d="M73.5107,0.3964 C73.5927,0.2094 73.7817,0.0844 73.9877,0.0844 C74.1947,0.0844 74.3837,0.2094 74.4657,0.4164 L79.5107,14.4294 C79.5727,14.5954 79.4477,14.7834 79.2627,14.7834 L76.4797,14.7834 C76.2507,14.7834 76.0637,14.6384 75.9817,14.4294 L73.5927,7.2054 L70.2297,14.6384 C70.1477,14.8244 69.9617,14.9494 69.7527,14.9494 C69.5457,14.9494 69.3607,14.8244 69.2767,14.6384 L65.9127,7.2054 L63.5267,14.4294 C63.4427,14.6384 63.2547,14.7834 63.0267,14.7834 L60.2447,14.7834 C60.0597,14.7834 59.9347,14.5954 59.9947,14.4294 L65.0397,0.4164 C65.1217,0.2094 65.3117,0.0844 65.4967,0.0844 C65.7057,0.0844 65.9127,0.2094 65.9947,0.3964 L69.7527,8.5334 L73.5107,0.3964 Z" id="Fill-94"></path>
                        <path d="M90.0576,7.496 C90.0576,6.416 89.5806,3.135 86.2376,3.135 C82.8736,3.135 82.3976,6.416 82.3976,7.496 C82.3976,8.576 82.8736,11.894 86.2376,11.894 C89.5806,11.894 90.0576,8.576 90.0576,7.496 M93.4406,7.496 C93.4406,10.609 91.7396,15.012 86.2376,15.012 C80.7156,15.012 79.0126,10.609 79.0126,7.496 C79.0126,4.465 80.7156,0 86.2376,0 C91.7396,0 93.4406,4.465 93.4406,7.496" id="Fill-96"></path>
                        <path d="M95.4756,14.7831 C95.2706,14.7831 95.1026,14.6171 95.1026,14.4101 L95.1026,0.3531 C95.1026,0.1891 95.2296,0.0431 95.3936,0.0431 C95.6006,0.0431 95.7896,0.1271 95.9326,0.2521 L103.8236,7.6211 L103.8236,0.6251 C103.8236,0.4161 103.9896,0.2521 104.1966,0.2521 L106.7706,0.2521 C106.9776,0.2521 107.1436,0.4161 107.1436,0.6251 L107.1436,14.6171 C107.1436,14.7621 107.0206,14.8871 106.8736,14.8871 C106.7076,14.8871 106.5416,14.8241 106.4166,14.7011 L98.4466,7.1621 L98.4466,14.4101 C98.4466,14.6171 98.2806,14.7831 98.0716,14.7831 L95.4756,14.7831 Z" id="Fill-98"></path>
                        <path d="M120.3486,10.4433 C120.3486,12.9763 118.1476,14.9493 114.9716,14.9493 C112.9576,14.9493 111.3176,14.4513 109.5536,13.5373 C109.3666,13.4533 109.3036,13.2243 109.3876,13.0393 L110.5286,10.9203 C110.6106,10.7343 110.8406,10.6733 111.0266,10.7543 C112.3566,11.3573 113.6436,11.8343 114.8466,11.8343 C115.9246,11.8343 116.8406,11.3163 116.8406,10.5883 C116.8406,9.6773 115.7196,9.2813 114.3486,8.8453 C112.2506,8.1583 109.6146,7.3513 109.6146,4.3613 C109.6146,1.6403 111.6296,0.0233 114.4096,0.0233 C115.3236,0.0233 117.2356,0.1463 119.6626,1.2673 C119.8506,1.3713 119.9346,1.5783 119.8506,1.7873 L118.9166,3.9253 C118.8326,4.1113 118.6236,4.1933 118.4186,4.1113 C117.5046,3.7793 115.7826,3.1583 114.6186,3.1583 C113.7466,3.1583 112.9386,3.4273 112.9576,4.2163 C113.0416,5.1093 114.4936,5.5043 116.1146,6.0863 C118.1276,6.7893 120.3486,7.7853 120.3486,10.4433" id="Fill-100"></path>
                        <path d="M7.791,23.957 C7.688,24.043 7.528,24.043 7.427,23.943 C6.814,23.318 5.84,22.793 5.068,22.793 C2.709,22.793 2.374,25.064 2.374,25.822 C2.374,26.578 2.709,28.836 5.083,28.836 C5.897,28.836 6.858,28.369 7.542,27.803 C7.659,27.715 7.819,27.715 7.907,27.832 L8.912,29.025 C9.013,29.141 9,29.316 8.896,29.418 C7.834,30.422 6.611,31.062 5.068,31.062 C1.195,31.062 3.69482223e-13,28.004 3.69482223e-13,25.822 C3.69482223e-13,23.695 1.195,20.594 5.068,20.594 C6.727,20.594 7.936,21.309 8.984,22.443 C9.086,22.547 9.071,22.721 8.97,22.822 L7.791,23.957 Z" id="Fill-102"></path>
                        <path d="M17.1972,25.8222 C17.1972,25.0642 16.8622,22.7632 14.5172,22.7632 C12.1602,22.7632 11.8232,25.0642 11.8232,25.8222 C11.8232,26.5782 12.1602,28.9062 14.5172,28.9062 C16.8622,28.9062 17.1972,26.5782 17.1972,25.8222 M19.5702,25.8222 C19.5702,28.0042 18.3762,31.0922 14.5172,31.0922 C10.6442,31.0922 9.4512,28.0042 9.4512,25.8222 C9.4512,23.6952 10.6442,20.5642 14.5172,20.5642 C18.3762,20.5642 19.5702,23.6952 19.5702,25.8222" id="Fill-104"></path>
                        <path d="M23.0503,26.9863 L23.0503,30.6703 C23.0503,30.8163 22.9353,30.9333 22.7903,30.9333 L20.9983,30.9333 C20.8523,30.9333 20.7353,30.8163 20.7353,30.6703 L20.7353,21.0023 C20.7353,20.8553 20.8523,20.7403 20.9983,20.7403 L27.5083,20.7403 C27.6523,20.7403 27.7693,20.8553 27.7693,21.0023 L27.7693,22.6463 C27.7693,22.7933 27.6523,22.9103 27.5083,22.9103 L23.0503,22.9103 L23.0503,24.8163 L26.4873,24.8163 C26.6333,24.8163 26.7503,24.9313 26.7503,25.0783 L26.7503,26.7243 C26.7503,26.8693 26.6333,26.9863 26.4873,26.9863 L23.0503,26.9863 Z" id="Fill-106"></path>
                        <path d="M31.249,26.9863 L31.249,30.6703 C31.249,30.8163 31.132,30.9333 30.987,30.9333 L29.195,30.9333 C29.051,30.9333 28.934,30.8163 28.934,30.6703 L28.934,21.0023 C28.934,20.8553 29.051,20.7403 29.195,20.7403 L35.705,20.7403 C35.849,20.7403 35.966,20.8553 35.966,21.0023 L35.966,22.6463 C35.966,22.7933 35.849,22.9103 35.705,22.9103 L31.249,22.9103 L31.249,24.8163 L34.685,24.8163 C34.83,24.8163 34.947,24.9313 34.947,25.0783 L34.947,26.7243 C34.947,26.8693 34.83,26.9863 34.685,26.9863 L31.249,26.9863 Z" id="Fill-108"></path>
                        <path d="M39.4599,26.9863 L39.4599,28.7613 L43.9169,28.7613 C44.0639,28.7613 44.1789,28.8793 44.1789,29.0253 L44.1789,30.6703 C44.1789,30.8163 44.0639,30.9333 43.9169,30.9333 L37.3939,30.9333 C37.2479,30.9333 37.1319,30.8163 37.1319,30.6703 L37.1319,21.0023 C37.1319,20.8553 37.2479,20.7403 37.3939,20.7403 L43.9169,20.7403 C44.0639,20.7403 44.1789,20.8553 44.1789,21.0023 L44.1789,22.6463 C44.1789,22.7933 44.0639,22.9103 43.9169,22.9103 L39.4599,22.9103 L39.4599,24.8163 L42.8819,24.8163 C43.0279,24.8163 43.1459,24.9313 43.1459,25.0783 L43.1459,26.7243 C43.1459,26.8693 43.0279,26.9863 42.8819,26.9863 L39.4599,26.9863 Z" id="Fill-110"></path>
                        <path d="M47.9638,26.9863 L47.9638,28.7613 L52.4208,28.7613 C52.5658,28.7613 52.6828,28.8793 52.6828,29.0253 L52.6828,30.6703 C52.6828,30.8163 52.5658,30.9333 52.4208,30.9333 L45.8978,30.9333 C45.7508,30.9333 45.6338,30.8163 45.6338,30.6703 L45.6338,21.0023 C45.6338,20.8553 45.7508,20.7403 45.8978,20.7403 L52.4208,20.7403 C52.5658,20.7403 52.6828,20.8553 52.6828,21.0023 L52.6828,22.6463 C52.6828,22.7933 52.5658,22.9103 52.4208,22.9103 L47.9638,22.9103 L47.9638,24.8163 L51.3878,24.8163 C51.5318,24.8163 51.6498,24.9313 51.6498,25.0783 L51.6498,26.7243 C51.6498,26.8693 51.5318,26.9863 51.3878,26.9863 L47.9638,26.9863 Z" id="Fill-112"></path>
                        <path d="M62.8896,24.1034 C62.8896,23.6794 62.6556,22.8944 61.6066,22.8944 L59.9486,22.8944 L59.9486,25.3264 L61.6646,25.3264 C62.6556,25.2964 62.8896,24.4804 62.8896,24.1034 M63.3406,27.1174 L65.0146,30.6994 C65.0736,30.7984 64.9856,30.9334 64.8686,30.9334 L62.8446,30.9334 C62.6846,30.9334 62.5396,30.8454 62.4676,30.6994 L60.9816,27.5114 L59.9486,27.5114 L59.9486,30.6694 C59.9486,30.8164 59.8306,30.9334 59.6866,30.9334 L57.8956,30.9334 C57.7506,30.9334 57.6336,30.8164 57.6336,30.6694 L57.6336,21.0014 C57.6336,20.8554 57.7506,20.7404 57.8956,20.7404 L61.5356,20.7404 C64.3606,20.7404 65.2176,22.7204 65.2176,24.1034 C65.2176,25.5424 64.4326,26.5784 63.3406,27.1174" id="Fill-114"></path>
                        <path d="M73.8388,25.8222 C73.8388,25.0642 73.5048,22.7632 71.1588,22.7632 C68.8018,22.7632 68.4658,25.0642 68.4658,25.8222 C68.4658,26.5782 68.8018,28.9062 71.1588,28.9062 C73.5048,28.9062 73.8388,26.5782 73.8388,25.8222 M76.2118,25.8222 C76.2118,28.0042 75.0208,31.0922 71.1588,31.0922 C67.2878,31.0922 66.0928,28.0042 66.0928,25.8222 C66.0928,23.6952 67.2878,20.5642 71.1588,20.5642 C75.0208,20.5642 76.2118,23.6952 76.2118,25.8222" id="Fill-116"></path>
                        <path d="M80.2314,27.0448 L81.7604,27.0448 L81.0024,25.1518 L80.2314,27.0448 Z M85.8214,30.6988 C85.8794,30.7988 85.7924,30.9338 85.6784,30.9338 L83.5964,30.9338 C83.4364,30.9338 83.2904,30.8298 83.2334,30.6838 L82.5024,28.8648 L79.5024,28.8648 L78.7764,30.6838 C78.7174,30.8298 78.5714,30.9338 78.4114,30.9338 L76.3294,30.9338 C76.2134,30.9338 76.1264,30.7988 76.1704,30.6988 L80.6394,20.8558 C80.6984,20.7088 80.8444,20.6228 80.9894,20.6228 C81.1334,20.6228 81.2824,20.7088 81.3384,20.8558 L85.8214,30.6988 Z" id="Fill-118"></path>
                        <path d="M93.8916,27.8886 C93.8916,29.6656 92.3466,31.0486 90.1206,31.0486 C88.7056,31.0486 87.5576,30.6996 86.3196,30.0566 C86.1886,29.9976 86.1436,29.8396 86.2026,29.7086 L87.0026,28.2246 C87.0616,28.0916 87.2216,28.0486 87.3526,28.1076 C88.2846,28.5296 89.1866,28.8656 90.0326,28.8656 C90.7896,28.8656 91.4286,28.4996 91.4286,27.9926 C91.4286,27.3496 90.6436,27.0746 89.6826,26.7676 C88.2116,26.2866 86.3646,25.7186 86.3646,23.6226 C86.3646,21.7146 87.7746,20.5796 89.7276,20.5796 C90.3666,20.5796 91.7076,20.6676 93.4096,21.4526 C93.5396,21.5256 93.5986,21.6716 93.5396,21.8186 L92.8856,23.3186 C92.8276,23.4496 92.6826,23.5056 92.5366,23.4496 C91.8956,23.2146 90.6866,22.7776 89.8716,22.7776 C89.2606,22.7776 88.6926,22.9666 88.7056,23.5216 C88.7646,24.1486 89.7846,24.4216 90.9206,24.8296 C92.3326,25.3256 93.8916,26.0236 93.8916,27.8886" id="Fill-120"></path>
                        <path d="M96.9189,22.9101 L94.5169,22.9101 C94.3719,22.9101 94.2549,22.7931 94.2549,22.6461 L94.2549,21.0021 C94.2549,20.8551 94.3719,20.7401 94.5169,20.7401 L101.6939,20.7401 C101.8409,20.7401 101.9579,20.8551 101.9579,21.0021 L101.9579,22.6461 C101.9579,22.7931 101.8409,22.9101 101.6939,22.9101 L99.2649,22.9101 L99.2649,30.6701 C99.2649,30.8161 99.1479,30.9331 99.0029,30.9331 L97.1829,30.9331 C97.0339,30.9331 96.9189,30.8161 96.9189,30.6701 L96.9189,22.9101 Z" id="Fill-122"></path>
                        <path d="M106.1084,26.9863 L106.1084,28.7613 L110.5614,28.7613 C110.7084,28.7613 110.8254,28.8793 110.8254,29.0253 L110.8254,30.6703 C110.8254,30.8163 110.7084,30.9333 110.5614,30.9333 L104.0404,30.9333 C103.8934,30.9333 103.7784,30.8163 103.7784,30.6703 L103.7784,21.0023 C103.7784,20.8553 103.8934,20.7403 104.0404,20.7403 L110.5614,20.7403 C110.7084,20.7403 110.8254,20.8553 110.8254,21.0023 L110.8254,22.6463 C110.8254,22.7933 110.7084,22.9103 110.5614,22.9103 L106.1084,22.9103 L106.1084,24.8163 L109.5284,24.8163 C109.6744,24.8163 109.7924,24.9313 109.7924,25.0783 L109.7924,26.7243 C109.7924,26.8693 109.6744,26.9863 109.5284,26.9863 L106.1084,26.9863 Z" id="Fill-124"></path>
                        <path d="M117.5361,24.1034 C117.5361,23.6794 117.3041,22.8944 116.2571,22.8944 L114.5971,22.8944 L114.5971,25.3264 L116.3151,25.3264 C117.3041,25.2964 117.5361,24.4804 117.5361,24.1034 M117.9911,27.1174 L119.6631,30.6994 C119.7221,30.7984 119.6341,30.9334 119.5161,30.9334 L117.4931,30.9334 C117.3331,30.9334 117.1881,30.8454 117.1161,30.6994 L115.6321,27.5114 L114.5971,27.5114 L114.5971,30.6694 C114.5971,30.8164 114.4811,30.9334 114.3351,30.9334 L112.5441,30.9334 C112.3971,30.9334 112.2801,30.8164 112.2801,30.6694 L112.2801,21.0014 C112.2801,20.8554 112.3971,20.7404 112.5441,20.7404 L116.1821,20.7404 C119.0071,20.7404 119.8661,22.7204 119.8661,24.1034 C119.8661,25.5424 119.0811,26.5784 117.9911,27.1174" id="Fill-126"></path>
                    </g>
                </g>
                <g id="logo/mark" transform="translate(0.000000, -0.000000)">
                    <g id="Group-2">
                        <path d="M20.4823,12.195 L20.8133,12.195 L20.8183,12.195 C20.8173,12.144 21.8503,8.853 25.4983,7.576 C25.4983,7.576 23.6073,6.017 22.5123,3.025 L23.1503,2.162 L24.7033,2.142 L25.1303,2.783 L25.4363,2.617 L24.7783,1.226 L23.5453,1.226 L22.3473,0 L16.5703,0 L16.8813,0.668 L19.3573,0.902 C19.3303,1.06 19.2993,1.218 19.2663,1.371 L17.2043,1.382 L17.5143,2.049 L19.0593,2.197 C18.0453,5.728 15.8023,7.576 15.8023,7.576 C19.4523,8.853 20.4833,12.144 20.4823,12.195" id="Fill-128"></path>
                        <path d="M18.284,17.1325 C18.644,19.9175 19.054,23.6965 19.054,23.6965 L19.871,23.7045 C19.871,23.7045 19.842,17.5325 19.842,14.3145 C19.842,12.9275 18.589,10.1895 14.466,8.7325 C12.469,8.0255 11.048,6.4995 9.787,4.3395 C8.993,2.9785 7.802,2.3905 6.622,2.4725 C4.975,2.5895 2.397,4.1595 1.919,8.8645 C1.717,10.8435 5.68434189e-14,27.5365 5.68434189e-14,27.5365 C5.68434189e-14,27.5365 1.233,26.6305 3.228,25.5235 L4.917,10.4545 C5.2,10.6525 5.546,10.8745 5.951,11.1145 L4.407,24.8925 C5.124,24.5275 5.909,24.1535 6.744,23.7945 L8.048,12.1555 C8.384,12.2945 8.737,12.4315 9.112,12.5625 L7.906,23.3215 C8.644,23.0365 9.414,22.7695 10.208,22.5365 L11.258,13.1595 C11.609,13.2365 11.97,13.3065 12.344,13.3645 L11.351,22.2205 C12.104,22.0325 12.872,21.8765 13.652,21.7635 L14.522,16.0645 C14.522,16.0645 14.701,14.2515 16.307,14.2655 C17.426,14.2735 18.029,15.1555 18.284,17.1325" id="Fill-130"></path>
                        <path d="M38.0677,25.5231 C40.0627,26.6301 41.2967,27.5371 41.2967,27.5371 C41.2967,27.5371 39.5787,10.8431 39.3777,8.8651 C38.8997,4.1601 36.3207,2.5891 34.6747,2.4721 C33.4937,2.3901 32.3037,2.9781 31.5097,4.3391 C30.2497,6.5001 28.8277,8.0251 26.8307,8.7321 C22.7077,10.1891 21.4537,12.9271 21.4537,14.3141 C21.4537,17.5331 21.4247,23.7051 21.4247,23.7051 L22.2417,23.6971 C22.2417,23.6971 22.6527,19.9181 23.0127,17.1321 C23.2677,15.1561 23.8707,14.2731 24.9887,14.2651 C26.5957,14.2521 26.7747,16.0641 26.7747,16.0641 L27.6457,21.7631 C28.4247,21.8771 29.1937,22.0331 29.9437,22.2201 L28.9527,13.3651 C29.3257,13.3061 29.6887,13.2361 30.0397,13.1601 L31.0887,22.5371 C31.8817,22.7691 32.6527,23.0371 33.3907,23.3221 L32.1857,12.5621 C32.5597,12.4311 32.9137,12.2941 33.2487,12.1561 L34.5517,23.7941 C35.3897,24.1541 36.1727,24.5271 36.8887,24.8921 L35.3457,11.1151 C35.7517,10.8751 36.0967,10.6521 36.3807,10.4551 L38.0677,25.5231 Z" id="Fill-132"></path>
                        <path d="M20.1649,31.2497 L20.6699,27.1477 L21.1769,31.2497 C21.0109,31.2297 20.8429,31.2227 20.6699,31.2227 C20.4999,31.2227 20.3319,31.2297 20.1649,31.2497 M19.8279,27.8947 L19.2039,31.4387 C18.6989,31.5897 18.2269,31.8177 17.7999,32.1087 C17.9919,31.6867 18.3179,30.9767 18.6079,30.3947 C19.0499,29.5097 19.8279,27.8947 19.8279,27.8947 M22.7339,30.3947 C23.0239,30.9767 23.3499,31.6867 23.5419,32.1087 C23.1159,31.8177 22.6429,31.5897 22.1369,31.4387 L21.5139,27.8947 C21.5139,27.8947 22.2909,29.5097 22.7339,30.3947 M20.6699,24.0697 C20.6699,24.0697 20.1709,26.0607 17.7989,29.9197 C15.3579,33.8977 15.5809,36.3117 15.5809,36.3117 C15.5809,39.1247 17.8609,41.4017 20.6699,41.4017 C23.4809,41.4017 25.7599,39.1247 25.7599,36.3117 L25.7619,36.3117 C25.7619,36.3117 25.9829,33.8977 23.5419,29.9197 C21.1719,26.0607 20.6699,24.0697 20.6699,24.0697" id="Fill-134"></path>
                    </g>
                </g>
            </g>
        </g>
    </g>
</svg>