<?xml version="1.0" encoding="UTF-8"?>
<svg width="241px" height="32px" viewBox="0 0 241 32" version="1.1" xmlns="http://www.w3.org/2000/svg" xmlns:xlink="http://www.w3.org/1999/xlink">
    <!-- Generator: Sketch 61.2 (89653) - https://sketch.com -->
    <title>txt-copy</title>
    <desc>Created with Sketch.</desc>
    <g id="Page-1" stroke="none" stroke-width="1" fill="none" fill-rule="evenodd">
        <g id="200323_kariomons-top" transform="translate(-959.000000, -951.000000)" fill="#03567A">
            <g id="Group-2" transform="translate(958.500000, 951.694444)">
                <g id="Group-18">
                    <g id="Group-3">
                        <path d="M18.3872443,3.65958011 C16.7876835,3.65958011 14.3577952,3.72012463 12.5916135,3.87148594 C12.2250475,3.59903559 12.0251024,2.99359035 12.0251024,2.56977868 C13.6579873,2.75141225 17.1542495,2.81195678 19.253673,2.81195678 L23.7496607,2.81195678 C24.0495783,2.35787285 24.9160071,1.32861594 25.4130928,1.02841601 C25.4797412,0.995621059 25.5130654,0.967871486 25.5797137,0.967871486 C25.6158149,0.967871486 25.6796863,0.995621059 25.7130105,1.02841601 C26.546115,1.3588882 28.4789176,2.78168451 28.4789176,3.20549618 C28.4789176,3.44767428 28.3122967,3.65958011 27.9124065,3.65958011 L18.3872443,3.65958011 Z M18.0192364,12.8158965 C20.6841149,13.3777798 20.784152,13.9066111 20.784152,14.0718709 C20.784152,14.3693385 20.3840035,14.6007022 19.617052,14.6007022 C18.1526193,19.159118 16.6520621,22.759027 15.4182706,25.1029616 C19.5864851,24.6429886 23.8186122,23.9819494 26.4834907,23.4531181 C25.5831563,21.6352604 24.3521436,19.7871052 22.7515493,18.1675593 C22.6848578,18.1014553 22.6515121,18.0353514 22.6515121,17.9692475 C22.6515121,17.7709358 22.8515864,17.605676 23.0516607,17.605676 C23.6852293,17.605676 30.3488149,23.7505857 30.3488149,26.7886115 C30.3488149,27.94543 29.8152834,28.8047809 29.1150234,28.8047809 C28.6481834,28.8047809 28.1841222,28.3751054 27.9507022,27.3835467 C27.7172821,26.391988 27.3504793,25.3343253 26.8502935,24.2133131 C22.8182407,25.3701316 18.3193479,26.6233517 11.4862549,27.7140663 C11.4529092,28.6064691 11.1861435,29.0361446 10.886032,29.0361446 C10.185772,29.0361446 9.5522034,27.0199752 9.1214879,25.3701316 C9.71893198,25.4362356 10.288588,25.4692875 10.7859949,25.4692875 C10.9860692,25.4692875 12.7200464,25.3701316 14.2539493,25.2048718 C14.9208637,23.4200661 17.1189021,16.3827536 17.1189021,13.5430395 C17.1189021,13.3116758 17.0855564,13.0472602 17.0855564,12.8158965 C14.9514306,12.8489484 11.6863292,12.9481043 10.288588,13.0803121 C9.91900628,12.7497926 9.65501936,11.9895975 9.65501936,11.5268701 C11.0527606,11.659078 16.0518392,11.8573897 19.1863365,11.8573897 L26.5501821,11.8573897 C26.7836021,11.4607662 27.9840479,9.67871486 28.3508507,9.67871486 C28.6176165,9.67871486 31.3825321,11.5929741 31.3825321,12.2870652 C31.3825321,12.5514808 31.2158035,12.8158965 30.8156549,12.8158965 L18.0192364,12.8158965 Z M5.32528908,12.7636393 L5.32528908,11.2165315 C3.04717484,14.9361737 1.05959483,16.7438759 0.864095161,16.7438759 C0.63601221,16.7438759 0.410644531,16.4805384 0.410644531,16.2830352 C0.410644531,16.2172009 0.410644531,16.1842837 0.440512537,16.1541096 C5.19495597,10.1330074 7.80161827,2.30146 7.80161827,0 C8.67865152,0.0960084624 11.0572309,0.787269392 11.0572309,1.61019907 C11.0572309,1.93937094 10.7313981,2.20270844 10.0471492,2.20270844 L9.78919828,2.20270844 C9.07236614,4.04607092 7.93195139,6.61086841 6.5308704,9.17840901 C7.63870188,9.31007776 8.29036745,9.44174651 8.29036745,9.9684215 C8.29036745,10.2646762 7.99711794,10.6240221 7.24770253,10.8242684 L7.24770253,13.4878174 L7.24770253,19.5418368 C7.24770253,20.0355946 7.21511925,21.8432968 7.21511925,23.818328 C7.21511925,25.2968583 7.24770253,26.8768833 7.28028581,28.1277364 C7.28028581,28.4569083 7.31286909,28.7860801 7.31286909,29.1810864 C7.31286909,29.3127551 7.31286909,30.0040161 5.9117881,30.0040161 C5.48820548,30.0040161 4.99945629,29.9052645 4.99945629,29.3127551 L4.99945629,29.2798379 C4.99945629,29.2798379 5.06462285,28.588577 5.09720613,27.7985645 C5.22753925,25.1679327 5.2927058,20.4607749 5.2927058,19.5418368 L5.32528908,12.7636393 Z" id="Fill-1"></path>
                    </g>
                    <path d="M56.3418998,5.65314451 C55.9707231,5.71957611 54.7222195,5.81922351 54.2498127,5.91887091 C52.801661,6.2178131 49.8659904,7.48001348 49.4638823,7.64609247 C49.2951656,7.71252407 49.1264489,7.74297189 49.0224069,7.74297189 C48.7862035,7.74297189 48.6540421,7.64609247 48.6540421,7.51046129 C48.6540421,7.34715028 48.7862035,7.18107128 49.0898936,6.9790085 C49.9334771,6.4835395 51.0807507,5.91887091 52.1942809,5.28777072 C52.3629976,5.18812332 52.3967409,5.15490752 52.3967409,5.08847592 C52.3967409,5.02204433 52.2955109,5.02204433 52.1605376,4.98882853 C48.9914755,4.55702314 47.7429719,2.86578535 47.7429719,2.16825357 C47.7429719,2.00217457 47.8779452,1.93574297 48.046662,1.93574297 C48.1141486,1.93574297 48.1816353,1.93574297 48.2828653,1.96619079 C48.4853254,2.03539037 48.6877854,2.26790097 48.8902455,2.40076416 C50.2034238,3.29482276 52.0593075,3.52733336 53.7099193,3.52733336 C54.286368,3.52733336 54.5225714,3.39723814 55.1271396,3.36125436 L55.1946263,3.36125436 C55.6332897,3.36125436 57.4216867,3.69341235 57.4216867,4.68988633 C57.4216867,5.05526013 57.15174,5.48706552 56.3418998,5.65314451 M50.6042811,20.1348076 C51.5443968,20.1348076 52.4173614,20.8470389 52.7866926,21.593186 C54.6305504,25.1515163 55.1006083,25.7620003 57.9545309,25.7620003 C58.6260421,25.7620003 59.1604531,25.6602529 59.8347623,25.490674 C60.1369423,25.3889267 60.8056556,25.0158532 61.0406845,25.0158532 C61.2757134,25.0158532 61.5778934,24.9819374 61.913649,24.9819374 C64.0289093,24.9819374 64.1967871,25.6941687 64.1967871,26.2029054 C64.1967871,26.711642 63.9617582,27.1525471 63.2566715,27.3560418 C62.148678,27.6923732 60.4027488,27.9976152 58.7267688,27.9976152 C55.4699394,27.9976152 53.7603838,26.9490525 52.753117,25.0158532 C52.3837858,24.3036218 52.0144547,23.218317 51.7458502,22.6106593 C51.3093679,21.6949333 50.8393101,21.0844493 50.0334966,21.0844493 C48.626121,21.0844493 47.5517031,22.0001753 43.6569381,26.8133893 C43.1225271,27.4917049 42.5517426,28.0682731 41.7123536,28.0682731 C41.6452025,28.0682731 40.839389,27.9976152 40.2686045,27.5595364 C40.0671511,27.4238733 40,27.2203787 40,26.9490525 C40,26.5420631 40.2042513,26.2029054 40.4700578,26.0672422 C41.6452025,25.4228425 45.9400762,21.6271018 46.2422563,21.3557756 C47.1823719,20.5417969 56.3093284,11.5258529 56.3093284,10.6779584 C56.3093284,10.5083796 56.1414506,10.4066322 55.8728461,10.4066322 C55.0698307,10.4066322 52.0144547,11.4241055 48.6568986,13.5240574 C48.021761,13.9310467 47.6524298,14.1006256 47.1487964,14.1006256 C45.8729251,14.1006256 43.589787,12.8824839 43.589787,11.1866951 C43.589787,10.8814531 43.6933116,10.7118742 43.8611894,10.7118742 C43.9619161,10.7118742 44.0962184,10.7797058 44.2277226,10.8814531 C44.9999605,11.4919371 46.3765585,11.6954317 46.8130408,11.6954317 C47.5852787,11.6954317 48.4582432,11.4241055 48.9954522,11.2206109 C50.7385834,10.5422953 53.6932327,9.66048513 55.7721195,9.21958003 C55.9064217,9.18566425 56.3764796,8.98216959 56.4772062,8.91433804 C56.7458107,8.78150124 56.9136885,8.71084337 57.182293,8.71084337 C58.1559843,8.71084337 59.9019134,9.79614824 59.9019134,10.5083796 C59.9019134,10.7797058 59.6976621,10.9832004 59.395482,11.1866951 C57.719502,12.0345895 52.6523903,17.0173824 49.16333,20.4400496 C49.5970143,20.2365549 50.2685255,20.1348076 50.6042811,20.1348076" id="Fill-4"></path>
                    <path d="M84.7722645,14.3953759 C79.2985189,15.8737324 78.9686096,15.9409304 77.4510267,15.9409304 L77.3218122,15.9409304 C75.1444106,15.9409304 73,14.9665591 73,13.1522125 C73,12.9506185 73.0687311,12.8498214 73.2309365,12.8498214 C73.3299093,12.8498214 73.4618731,12.8834204 73.6268277,12.9870174 C75.2433834,13.9921878 76.9891536,14.1601828 78.0778544,14.1601828 C78.7046821,14.1601828 79.9583375,14.1601828 84.8382463,12.8190223 C84.1454367,11.743854 83.4856181,10.5678887 82.8257994,9.39192331 C80.5191834,10.0303045 79.0675824,10.1647005 78.4737456,10.1647005 C75.936193,10.1647005 74.6165557,8.58554706 74.6165557,7.54397775 C74.6165557,7.27798559 74.7155285,7.10719062 74.8804832,7.10719062 C75.0124469,7.10719062 75.1774016,7.21078757 75.3753471,7.37878262 C75.8372202,7.74557181 77.2200901,8.58554706 79.0016005,8.58554706 C80.0573103,8.58554706 81.6078842,8.18235894 82.1027482,8.0479629 C81.8718116,7.64477478 81.673866,7.27798559 81.4759204,6.87199755 C81.0470383,6.03482221 80.4861925,5.06045092 79.9583375,4.28767368 C79.4964645,3.44769843 78.5067365,3.38050041 78.2098181,3.38050041 C78.0146218,3.38050041 77.8139269,3.41409942 77.6517215,3.48129744 C77.5170085,3.54849546 77.3850448,3.54849546 77.2558303,3.54849546 C76.9891536,3.54849546 76.8269482,3.41409942 76.8269482,3.21250536 C76.8269482,2.70852021 77.7479451,1.93574297 79.265528,1.93574297 C81.3769476,1.93574297 81.6408751,2.74211922 81.706857,3.17890635 C82.0340171,4.82525785 82.9935033,6.93919557 83.3536544,7.7119728 C83.9804821,7.51317866 84.6073098,7.27798559 85.1021738,7.07639153 C85.2341375,7.04279252 85.3331103,6.90839647 85.4320831,6.80759944 C86.0589108,6.16921825 86.9826569,6.0012232 88.0026266,6.0012232 C88.2335631,6.0012232 88.9593637,6.0012232 88.9593637,6.77400043 C88.9593637,7.54397775 87.5105119,8.08156191 84.013473,9.05593321 C84.6732917,10.2990966 85.3661012,11.4750619 86.0589108,12.4802323 C88.2033215,11.811052 88.2033215,11.811052 88.6294543,11.53946 C89.751146,10.7694827 90.3449828,10.7694827 90.6748922,10.7694827 C91.0048015,10.7694827 92.3574297,10.8030817 92.3574297,11.8418511 C92.3574297,12.2450393 92.0605113,12.6482274 91.3017199,12.8190223 C90.3779738,13.0178165 87.0486388,13.7905937 87.0128986,13.7905937 C87.1146207,13.8913908 87.1778533,14.0257868 87.2795753,14.1265838 C90.1140463,17.4864848 90.8068559,18.6932493 90.8068559,20.7763879 C90.8068559,20.944383 90.8068559,22.2547444 89.6191823,22.2547444 C89.289273,22.2547444 88.9923546,22.1539473 88.7614181,21.9523533 C87.8706629,21.2467741 85.1021738,20.6083929 82.1027482,20.6083929 C79.4304826,20.6083929 75.5403018,21.112378 75.5403018,23.6967019 C75.5403018,26.0822316 79.8263738,26.8858079 82.4958901,26.8858079 C83.158458,26.8858079 83.7495455,26.8550088 84.2774005,26.7206128 C84.6403007,26.6198158 85.2341375,26.3174247 85.5970378,26.3174247 L85.8609652,26.3174247 C87.1476116,26.3174247 88.3325359,26.5862168 88.3325359,27.560588 C88.3325359,28.3641644 87.4087898,29.0361446 83.6835637,29.0361446 C79.6614191,29.0361446 74.1876736,27.3561941 74.1876736,23.8982959 C74.1876736,20.2052047 79.4964645,19.1636354 84.1454367,19.1636354 C85.498065,19.1636354 86.8506932,19.2308334 88.2665541,19.3988285 L88.3655269,19.3988285 C88.5304815,19.3988285 88.6954362,19.2980315 88.6954362,19.1300364 C88.6954362,18.3908582 88.0356175,17.3828879 86.454802,15.1681531 C86.2238655,14.832163 85.959938,14.4961729 85.7290015,14.1265838 L84.7722645,14.3953759 Z" id="Fill-6"></path>
                    <path d="M110.675089,24.1967871 C110.320062,24.1967871 108.121853,24.2340428 108.121853,25.6497586 C108.121853,26.8419403 110.03604,27.9937617 113.053771,28.0682731 C113.728322,28.0682731 114.296366,27.9937617 114.896953,27.9192504 C114.825948,25.4976313 112.769749,24.1967871 110.675089,24.1967871 M122.295537,20.1150843 C122.295537,17.5597201 120.111904,15.7198579 116.839213,15.7198579 C114.986434,15.7198579 111.151292,16.3331453 106.786784,20.827747 C106.025821,21.7136065 105.595712,22.1224648 104.570066,22.1224648 C103.875274,22.1224648 103.282495,21.4410344 103.282495,20.964033 C103.282495,20.6573893 103.447922,20.3876565 103.709848,20.180388 C104.768578,19.3655108 106.588272,17.9345068 107.150723,17.355291 C111.879169,12.4177595 116.376018,6.38993931 116.376018,5.87886648 C116.376018,5.74258039 116.309847,5.6062943 116.111335,5.6062943 C115.151861,5.6062943 112.408535,7.03729824 111.44906,7.95722935 C111.085121,8.29794457 110.721182,8.43423066 110.224902,8.43423066 C108.110198,8.43423066 106.588272,7.00322672 106.588272,5.912938 C106.588272,5.53815125 106.687528,5.23150755 106.88604,5.23150755 C107.018381,5.23150755 107.183808,5.33372212 107.38232,5.50407973 C107.977856,6.01515257 108.738819,6.18551018 109.463939,6.18551018 C109.927134,6.18551018 110.324158,6.11736713 111.01895,5.87886648 C112.44162,5.36779364 114.457068,4.79141705 115.615055,4.51600558 C115.813567,4.48477335 116.07825,4.24627269 116.309847,4.1099866 C116.57453,3.97086122 116.773042,3.87148594 117.00464,3.87148594 C117.895187,3.87148594 119.64871,5.09522146 119.64871,5.87886648 C119.64871,6.28772475 119.155187,6.62843997 118.691992,6.8328691 C118.49348,6.93508367 118.06337,7.20765585 118.030285,7.2757989 C116.872298,8.53644523 115.284202,10.2371821 113.864289,11.8044721 C112.210022,13.5761913 110.390329,15.5154287 109.000745,17.0486473 C112.706303,14.7005515 116.442189,14.6295692 117.00464,14.6295692 C121.336062,14.6295692 124.575668,17.2530764 124.575668,20.4557995 C124.575668,25.3592594 118.821576,29.0361446 113.268753,29.0361446 C109.563195,29.0361446 106.819869,27.2984969 106.819869,25.1889018 C106.819869,23.7578979 108.140526,22.46318 110.820438,22.46318 C113.467265,22.46318 116.045165,24.0645416 116.243677,26.7533526 C120.70744,25.3904917 122.295537,22.2928224 122.295537,20.1150843" id="Fill-8"></path>
                    <path d="M140.502583,29.4671018 C139.028523,26.7054115 137.044416,24.5357204 134.769235,23.1009246 C134.609011,22.9959396 134.544922,22.8938708 134.544922,22.7509744 C134.544922,22.5060093 134.833325,22.2610442 135.185818,22.2610442 C136.46761,22.2610442 141.845794,25.3406058 142.743049,26.9824554 C143.095541,27.6123658 143.255765,28.3122661 143.255765,28.9421765 C143.255765,29.3971117 143.063496,30.9718876 142.070108,30.9718876 C141.592106,30.9718876 141.047345,30.4819573 140.502583,29.4671018" id="Fill-10"></path>
                    <path d="M165.521338,15.7039318 C163.923786,15.7039318 155.57547,15.8627077 154.377306,15.9897284 C154.044483,15.5769111 153.678377,14.7512763 153.611812,14.2431934 C156.374245,14.6242556 166.386678,14.687766 167.815045,14.687766 L177.794195,14.687766 C178.226865,14.1161727 179.890982,12.1182425 180.190523,12.1182425 C180.656475,12.1182425 183.615829,14.4654797 183.615829,15.1323385 C183.615829,15.4498904 183.34957,15.7039318 182.950182,15.7039318 L165.521338,15.7039318 Z" id="Fill-12"></path>
                    <path d="M222.567959,19.1724197 C221.373329,16.408249 218.951861,13.3448781 216.246375,11.2367519 C216.214167,11.2065574 216.176103,11.1708729 216.176103,11.107739 C216.176103,10.9101021 216.46012,10.6465863 216.668009,10.6465863 C216.913963,10.6465863 224.886946,15.2883069 224.886946,18.7442065 C224.886946,18.843025 224.886946,20.3253012 223.797725,20.3253012 C223.411227,20.3253012 222.954457,20.028846 222.567959,19.1724197 L222.567959,19.1724197 Z M216.005803,3.99093902 C215.392723,5.6228855 214.643403,7.31999651 213.791903,8.98594188 C215.392723,9.18993519 215.767383,9.49592515 215.767383,9.80191512 C215.767383,10.1079051 215.392723,10.4138951 214.711523,10.5498906 C214.677463,11.3658638 214.677463,21.7610229 214.677463,21.7610229 C214.677463,22.7129917 214.677463,25.7048936 214.776805,28.7959589 C214.776805,29.1359478 214.813703,29.6799299 214.813703,30.1219154 C214.813703,30.835892 213.928143,30.9718876 213.383183,30.9718876 C212.872283,30.9718876 212.361384,30.8698909 212.361384,30.2919098 L212.361384,30.2239121 C212.361384,30.2239121 212.497624,26.6228635 212.531684,24.7189259 C212.565744,23.800956 212.599804,19.8939175 212.599804,18.1599744 C212.599804,16.2928689 212.633864,14.4569291 212.633864,12.5869905 L212.633864,11.0230417 C208.413263,18.1599744 203.204922,20.8090542 203.102742,20.8090542 C202.864322,20.8090542 202.625902,20.641893 202.625902,20.4039008 C202.625902,20.2679052 202.694022,20.1319097 202.864322,19.9959142 C208.072663,15.9528801 212.054844,9.3939285 213.451303,3.99093902 L211.509884,3.99093902 C209.980022,3.99093902 205.895661,4.0249379 204.328902,4.19493233 C204.022362,3.92294125 203.783942,3.20896466 203.749882,2.76697915 C205.350702,2.97097246 210.320622,3.03897023 212.395444,3.03897023 L219.885804,3.03897023 C221.452564,1.10103379 221.585965,0.967871486 221.790325,0.967871486 C222.403405,0.967871486 224.886946,2.93697358 224.886946,3.48095574 C224.886946,3.75294682 224.648526,3.99093902 224.242645,3.99093902 L216.005803,3.99093902 Z M200.56417,8.54767527 L200.56417,11.1272517 C201.477118,11.5317247 204.420353,13.5003488 204.420353,15.4010893 C204.420353,16.3854013 203.897111,16.7927029 203.570085,16.7927029 C203.210356,16.7927029 202.850628,16.51834 202.687115,15.9780998 C202.294683,14.7561952 201.542523,13.1609308 200.528742,12.0069098 L200.528742,20.3537628 C200.528742,22.0819659 200.56417,26.6980499 200.594148,28.3583694 C200.594148,29.240856 200.629575,29.9875755 200.629575,30.1233427 C200.629575,30.9379458 199.678474,30.9718876 199.354174,30.9718876 C198.765527,30.9718876 198.405798,30.8021786 198.405798,30.2930517 L198.405798,30.1572845 C198.438501,29.7499829 198.536608,28.3244276 198.634716,20.4555882 C198.667419,18.8263821 198.798229,15.0956131 198.863634,12.6518039 C198.438501,14.2810101 197.882556,15.9102162 197.359314,16.9256416 C195.364455,20.8628897 193.699347,22.72686 193.470429,22.72686 C193.274213,22.72686 192.947187,22.5232092 192.947187,22.2884451 C192.947187,22.2516748 192.947187,22.2205615 192.97989,22.1837912 C195.170965,19.0300328 197.490125,13.4324652 198.373095,8.54767527 L197.947961,8.54767527 C196.93418,8.54767527 194.972024,8.68344245 194.219864,8.78526783 C193.960968,8.51373347 193.699347,7.80095579 193.699347,7.39365425 C194.549615,7.52942143 197.522827,7.63124681 198.700121,7.63124681 L198.700121,4.4774884 C198.700121,2.78039867 198.634716,1.49061048 198.471203,0 C200.594148,0 201.738739,0.271534357 201.738739,0.882486659 C201.738739,1.21907612 201.411713,1.55849407 200.594148,1.76214484 C200.594148,2.03367919 200.56417,4.54537199 200.56417,7.63124681 L201.607928,7.63124681 C201.967657,7.02312299 202.817925,5.76727659 203.112249,5.76727659 C203.177654,5.76727659 203.210356,5.76727659 203.243059,5.79838991 C203.995219,6.20569144 205.529517,7.66518861 205.529517,8.10643194 C205.529517,8.3440245 205.336026,8.54767527 204.973572,8.54767527 L200.56417,8.54767527 Z" id="Fill-14"></path>
                    <path d="M236.417209,22.7276121 C234.550098,22.7276121 233.046037,24.2591378 233.046037,26.11652 C233.046037,27.9711868 234.550098,29.5027125 236.417209,29.5027125 C238.284319,29.5027125 239.821137,27.9711868 239.821137,26.11652 C239.821137,24.2591378 238.284319,22.7276121 236.417209,22.7276121 M236.484764,30.9718876 C233.825198,30.9718876 231.662047,28.8040558 231.662047,26.135313 C231.662047,23.4637873 233.825198,21.2931727 236.484764,21.2931727 C239.144331,21.2931727 241.340761,23.4637873 241.340761,26.135313 C241.340761,28.8040558 239.144331,30.9718876 236.484764,30.9718876" id="Fill-16"></path>
                </g>
            </g>
        </g>
    </g>
</svg>