<?xml version="1.0" encoding="UTF-8"?>
<svg width="586px" height="86px" viewBox="0 0 586 86" version="1.1" xmlns="http://www.w3.org/2000/svg" xmlns:xlink="http://www.w3.org/1999/xlink">
    <!-- Generator: Sketch 61 (89581) - https://sketch.com -->
    <title>txt-special-day</title>
    <desc>Created with Sketch.</desc>
    <defs>
        <polygon id="path-1" points="0.5 0.00974168347 18.2241935 0.00974168347 18.2241935 28.2222256 0.5 28.2222256"></polygon>
        <polygon id="path-3" points="0.228515184 0.600096774 12.0688378 0.600096774 12.0688378 16.4516129 0.228515184 16.4516129"></polygon>
        <polygon id="path-5" points="0.000253266319 0.102025395 16.722162 0.102025395 16.722162 16.6861573 0.000253266319 16.6861573"></polygon>
        <polygon id="path-7" points="0 22.403812 205.336935 22.403812 205.336935 -0.00012663316 0 -0.00012663316"></polygon>
    </defs>
    <g id="Page-1" stroke="none" stroke-width="1" fill="none" fill-rule="evenodd">
        <g id="200323_kariomons-top" transform="translate(-784.000000, -3937.000000)">
            <g id="Group-52" transform="translate(1315.000000, 3937.000000)">
                <ellipse id="Oval" stroke="#005672" stroke-width="2.4" fill-opacity="0" fill="#E7E7E7" cx="22" cy="22.5" rx="20.8" ry="21.3"></ellipse>
                <path d="M21.6736,34.4288 C27.904,34.4288 29.3472,30.1696 29.3472,27.6352 C29.3472,26.016 28.784,23.728 26.7072,22.2144 C28.784,20.7008 29.3472,18.4128 29.3472,16.7936 C29.3472,14.2592 27.904,10 21.6736,10 C15.4432,10 14,14.2592 14,16.7936 C14,18.448 14.6336,20.7008 16.64,22.2144 C14.6336,23.728 14,25.9808 14,27.6352 C14,30.1696 15.4432,34.4288 21.6736,34.4288 Z M21.6736,20.8064 C19.4208,20.8064 17.3088,19.504 17.3088,16.7936 C17.3088,14.1184 19.4208,12.816 21.6736,12.816 C23.9264,12.816 26.0384,14.1184 26.0384,16.7936 C26.0384,19.504 23.9264,20.8064 21.6736,20.8064 Z M21.6736,31.6128 C19.4208,31.6128 17.3088,30.3104 17.3088,27.6352 C17.3088,24.9248 19.4208,23.6224 21.6736,23.6224 C23.9264,23.6224 26.0384,24.9248 26.0384,27.6352 C26.0384,30.3104 23.9264,31.6128 21.6736,31.6128 Z" id="8" fill="#045671" fill-rule="nonzero"></path>
            </g>
            <g id="Group-23" transform="translate(784.500000, 3984.766497)">
                <g id="Group-3" transform="translate(0.000000, 0.322258)">
                    <mask id="mask-2" fill="white">
                        <use xlink:href="#path-1"></use>
                    </mask>
                    <g id="Clip-2"></g>
                    <path d="M14.4025806,20.3767417 C14.4025806,17.2470643 11.9629032,15.7422256 9.3616129,15.7422256 C6.76032258,15.7422256 4.32064516,17.2470643 4.32064516,20.3767417 C4.32064516,23.4657739 6.76032258,24.9706127 9.3616129,24.9706127 C11.9629032,24.9706127 14.4025806,23.4657739 14.4025806,20.3767417 M14.4025806,7.85609652 C14.4025806,4.76609652 11.9629032,3.26125781 9.3616129,3.26125781 C6.76032258,3.26125781 4.32064516,4.76609652 4.32064516,7.85609652 C4.32064516,10.9857739 6.76032258,12.4906127 9.3616129,12.4906127 C11.9629032,12.4906127 14.4025806,10.9857739 14.4025806,7.85609652 M18.2241935,20.3767417 C18.2241935,23.3031933 16.5577419,28.2222256 9.3616129,28.2222256 C2.16645161,28.2222256 0.5,23.3031933 0.5,20.3767417 C0.5,18.4654514 1.2316129,15.864161 3.5483871,14.1154514 C1.2316129,12.3686772 0.5,9.7664191 0.5,7.85609652 C0.5,4.92867717 2.16645161,0.00964490927 9.3616129,0.00964490927 C16.5577419,0.00964490927 18.2241935,4.92867717 18.2241935,7.85609652 C18.2241935,9.72577394 17.5729032,12.3686772 15.1758065,14.1154514 C17.5729032,15.864161 18.2241935,18.5060965 18.2241935,20.3767417" id="Fill-1" fill="#09536D" mask="url(#mask-2)"></path>
                </g>
                <g id="Group-6" transform="translate(22.225806, 11.902903)">
                    <mask id="mask-4" fill="white">
                        <use xlink:href="#path-3"></use>
                    </mask>
                    <g id="Clip-5"></g>
                    <polygon id="Fill-4" fill="#09536D" mask="url(#mask-4)" points="4.26593454 3.98719355 0.228515184 3.98719355 0.228515184 0.600096774 12.0688378 0.600096774 12.0688378 3.98719355 7.92399905 3.98719355 7.92399905 16.4517097 4.26593454 16.4517097"></polygon>
                </g>
                <polygon id="Fill-7" fill="#09536D" points="40.6903539 28.3545161 37.0051926 28.3545161 37.0051926 12.53 40.6903539 12.53 40.6903539 18.7622581 46.2993862 18.7622581 46.2993862 12.53 49.9574507 12.53 49.9574507 28.3545161 46.2993862 28.3545161 46.2993862 22.1764516 40.6903539 22.1764516"></polygon>
                <polygon id="Fill-9" fill="#09536D" points="66.6612903 27.773871 70.7267742 27.773871 70.7267742 4.03322581 66.6612903 4.03322581"></polygon>
                <path d="M86.8630968,13.7079355 C90.4408387,14.8063226 94.872129,16.349871 94.872129,21.5127742 C94.872129,25.2540645 91.2537419,28.0992258 86.3753548,28.0992258 C82.8392258,28.0992258 80.3995484,27.3676129 77.6356774,25.8637419 L79.1405161,22.6111613 C81.3750323,23.7085806 83.6927742,24.4401935 86.1314839,24.4401935 C88.5711613,24.4401935 90.766,23.302129 90.766,21.472129 C90.766,18.8301935 88.0427742,18.1392258 85.2779355,17.2450323 C81.7824516,16.2685806 77.9201935,15.0501935 77.9201935,10.4156774 C77.9201935,6.1876129 81.0092258,3.74890323 85.4405161,3.74890323 C86.8630968,3.74890323 89.9937419,4.03341935 93.7340645,5.78116129 L92.2301935,9.11503226 C90.6034194,8.46374194 87.6363226,7.56954839 86.172129,7.56954839 C83.896,7.56954839 82.0669677,7.976 81.9450323,10.2124516 C81.9450323,12.2447097 84.2618065,12.9356774 86.8630968,13.7079355" id="Fill-11" fill="#09536D"></path>
                <path d="M114.012806,18.3425484 L119.33829,18.3425484 L116.695387,11.8383548 L114.012806,18.3425484 Z M120.761839,21.7567419 L112.590226,21.7567419 L110.110871,27.7741613 L105.842161,27.7741613 L116.532806,3.83029032 L116.858935,3.83029032 L127.550548,27.7741613 L123.241194,27.7741613 L120.761839,21.7567419 Z" id="Fill-12" fill="#09536D"></path>
                <path d="M149.780452,13.7079355 C153.358194,14.8063226 157.789484,16.349871 157.789484,21.5127742 C157.789484,25.2540645 154.171097,28.0992258 149.29271,28.0992258 C145.756581,28.0992258 143.316903,27.3676129 140.553032,25.8637419 L142.057871,22.6111613 C144.292387,23.7085806 146.610129,24.4401935 149.048839,24.4401935 C151.488516,24.4401935 153.683355,23.302129 153.683355,21.472129 C153.683355,18.8301935 150.960129,18.1392258 148.19529,17.2450323 C144.699806,16.2685806 140.837548,15.0501935 140.837548,10.4156774 C140.837548,6.1876129 143.926581,3.74890323 148.357871,3.74890323 C149.780452,3.74890323 152.911097,4.03341935 156.651419,5.78116129 L155.147548,9.11503226 C153.520774,8.46374194 150.553677,7.56954839 149.089484,7.56954839 C146.813355,7.56954839 144.984323,7.976 144.862387,10.2124516 C144.862387,12.2447097 147.179161,12.9356774 149.780452,13.7079355" id="Fill-13" fill="#09536D"></path>
                <path d="M173.111161,15.497 C176.362774,15.497 177.135032,12.7737742 177.135032,11.5137742 C177.135032,10.1715161 176.362774,7.57022581 172.989226,7.57022581 L167.907613,7.57022581 L167.907613,15.497 L173.111161,15.497 Z M167.907613,27.7747419 L163.882774,27.7747419 L163.882774,4.03312903 L172.786,4.03312903 C179.168258,4.03312903 181.119226,8.42280645 181.119226,11.5137742 C181.119226,16.1473226 177.053742,19.1550645 173.273742,19.1550645 L167.907613,19.1550645 L167.907613,27.7747419 Z" id="Fill-14" fill="#09536D"></path>
                <polygon id="Fill-15" fill="#09536D" points="190.424742 17.8549032 190.424742 24.155871 202.213774 24.155871 202.213774 27.7742581 186.399903 27.7742581 186.399903 4.0336129 202.213774 4.0336129 202.213774 7.6103871 190.424742 7.6103871 190.424742 14.2374839 199.652161 14.2374839 199.652161 17.8549032"></polygon>
                <path d="M225.991097,10.2528065 C224.567548,8.70732258 222.088194,7.24506452 219.648516,7.24506452 C212.98271,7.24506452 211.965613,13.6263548 211.965613,15.7815161 C211.965613,17.9763548 212.98271,24.2773226 219.648516,24.3992581 C222.291419,24.3992581 224.648839,23.0173226 226.194323,21.5540968 L228.551742,24.4805484 C226.275613,26.7576452 223.551419,28.1395806 219.648516,28.1395806 C210.583677,28.1395806 207.901097,20.863129 207.901097,15.7815161 C207.901097,10.903129 210.583677,3.58506452 219.648516,3.58506452 C223.673355,3.58506452 226.356903,5.21183871 228.633032,7.69216129 L225.991097,10.2528065 Z" id="Fill-16" fill="#09536D"></path>
                <polygon id="Fill-17" fill="#09536D" points="236.351935 27.773871 240.417419 27.773871 240.417419 4.03322581 236.351935 4.03322581"></polygon>
                <path d="M254.276742,18.3425484 L259.602226,18.3425484 L256.959323,11.8383548 L254.276742,18.3425484 Z M261.025774,21.7567419 L252.854161,21.7567419 L250.374806,27.7741613 L246.106097,27.7741613 L256.796742,3.83029032 L257.122871,3.83029032 L267.814484,27.7741613 L263.505129,27.7741613 L261.025774,21.7567419 Z" id="Fill-18" fill="#09536D"></path>
                <polygon id="Fill-19" fill="#09536D" points="277.159484 24.1555806 285.980452 24.1555806 285.980452 27.7739677 273.094 27.7739677 273.094 4.03332258 277.159484 4.03332258"></polygon>
                <path d="M308.496806,24.1555806 C315.164548,24.1555806 316.139065,17.9765484 316.139065,15.8223548 C316.139065,13.7078387 315.164548,7.56945161 308.496806,7.56945161 L304.229065,7.56945161 L304.229065,24.1555806 L308.496806,24.1555806 Z M300.204226,27.7739677 L300.204226,4.03332258 L308.496806,4.03332258 C317.481323,4.03332258 320.246161,10.9439677 320.246161,15.8223548 C320.246161,20.8633226 317.481323,27.7739677 308.496806,27.7739677 L300.204226,27.7739677 Z" id="Fill-20" fill="#09536D"></path>
                <path d="M331.403915,18.3425484 L336.729399,18.3425484 L334.086496,11.8383548 L331.403915,18.3425484 Z M338.152948,21.7567419 L329.981335,21.7567419 L327.50198,27.7741613 L323.23327,27.7741613 L333.923915,3.83029032 L334.250044,3.83029032 L344.941657,27.7741613 L340.632303,27.7741613 L338.152948,21.7567419 Z" id="Fill-21" fill="#09536D"></path>
                <polygon id="Fill-22" fill="#09536D" points="358.353403 27.7742581 354.329532 27.7742581 354.329532 17.0826452 346.197597 4.0336129 350.833081 4.0336129 356.320177 13.0578065 361.848887 4.0336129 366.564694 4.0336129 358.353403 17.0013548"></polygon>
            </g>
            <g id="Group-16" transform="translate(1163.630435, 3991.266497)">
                <g id="Group-3" transform="translate(0.000000, 5.717655)">
                    <mask id="mask-6" fill="white">
                        <use xlink:href="#path-5"></use>
                    </mask>
                    <g id="Clip-2"></g>
                    <path d="M10.3322528,6.69834668 C10.3322528,7.22134163 10.2955292,7.70761297 10.2385442,8.39903002 L12.6686346,8.39903002 C12.6863632,7.53919086 12.7053582,7.24033661 12.7053582,6.69834668 L10.3322528,6.69834668 Z M10.0333985,10.2098842 C9.93968997,10.9202962 9.84598143,11.5749897 9.6965543,12.2284168 L12.3127954,12.2284168 C12.4242326,11.5002761 12.5002125,10.7898641 12.5369361,10.2098842 L10.0333985,10.2098842 Z M5.67975048,6.69834668 C5.66202184,7.24033661 5.64302686,7.52019589 5.56704697,8.39903002 L8.1452981,8.39903002 C8.25800161,7.44548233 8.25800161,6.99593461 8.25800161,6.69834668 L5.67975048,6.69834668 Z M5.34417261,10.2098842 C5.28718768,10.6227083 5.19347915,11.2381455 4.97060478,12.2284168 L7.52986094,12.2284168 C7.69828304,11.6319746 7.79072525,11.0519947 7.92242374,10.2098842 L5.34417261,10.2098842 Z M14.6669058,10.2098842 C14.5921923,11.1457033 14.5744636,11.3685776 14.4617601,12.2284168 L16.4423027,12.2284168 L16.4423027,13.8353916 L14.2008958,13.8353916 C13.6386446,15.7032307 13.2840717,16.8062055 10.1828256,16.6757733 L9.45468497,14.6952307 C9.73327792,14.7332207 10.0903834,14.7699443 10.6133784,14.7699443 C11.3972376,14.7699443 11.6226447,14.5078136 11.864514,13.8353916 L4.57677566,13.8353916 C4.44760984,14.2469493 4.31591135,14.6952307 4.18547919,15.1067885 L1.96180091,14.8256629 C2.4100823,13.7239544 2.93307725,12.1157133 3.17621291,10.2098842 L0.784112525,10.2098842 L0.784112525,8.39903002 L3.43834355,8.39903002 C3.58650435,6.92248738 3.6244943,6.02592461 3.6244943,5.09010556 L14.797338,5.09010556 C14.8353279,5.65235678 14.8530566,6.38049745 14.7796093,8.39903002 L16.722162,8.39903002 L16.722162,10.2098842 L14.6669058,10.2098842 Z M3.99806212,3.95167345 C3.49406214,4.75452768 2.83936871,5.74479899 1.99852453,6.54891956 L0.000253266319,5.18508043 C1.00825322,4.32524127 2.39108732,2.88542225 3.21293653,0.102025395 L5.23146909,0.644015318 C5.47460476,0.70100024 5.86716756,0.812437421 5.86716756,0.979593192 C5.86716756,1.11129168 5.77219269,1.16701027 5.62276556,1.26071881 C5.60503691,1.26071881 5.28718768,1.44813588 5.26819271,1.46586452 C5.19347915,1.67101024 5.11876558,1.85842732 5.02632338,2.08256801 L16.3675892,2.08256801 L16.3675892,3.95167345 L3.99806212,3.95167345 Z" id="Fill-1" fill="#09536D" mask="url(#mask-6)"></path>
                </g>
                <mask id="mask-8" fill="white">
                    <use xlink:href="#path-7"></use>
                </mask>
                <g id="Clip-5"></g>
                <path d="M25.5115164,10.5471492 L30.8174457,10.5471492 L30.8174457,8.60333024 L25.5115164,8.60333024 L25.5115164,10.5471492 Z M30.8174457,12.4162547 L25.5115164,12.4162547 C25.5115164,13.4622446 25.4735264,13.9485159 25.4368028,14.3588073 L30.8174457,14.3588073 L30.8174457,12.4162547 Z M29.5663101,22.2999728 L28.6507524,19.8521538 C28.9686016,19.9091387 29.397888,19.9648573 30.1260287,19.9648573 C30.6692849,19.9648573 30.8174457,19.8154302 30.8174457,19.4038724 L30.8174457,16.3216213 L25.1936671,16.3216213 C24.5769636,18.974586 23.7551144,20.4321337 21.6061497,22.0758321 L19.7573056,20.5435709 C21.0818884,19.478586 23.2321195,17.7779027 23.2321195,13.6116717 L23.2321195,6.64178259 L32.9854054,6.64178259 L32.9854054,20.4131387 C32.9854054,22.1695406 31.4721392,22.2999728 29.5663101,22.2999728 L29.5663101,22.2999728 Z" id="Fill-4" fill="#09536D" mask="url(#mask-8)"></path>
                <path d="M52.576315,6.1770389 C52.858707,4.13951136 51.3859633,3.1353104 49.6282951,3.1353104 C47.8718932,3.1353104 46.0850993,4.13951136 45.8027073,6.1770389 C45.5203154,8.27788302 47.0259837,9.28208397 48.7823856,9.28208397 C50.5387875,9.28208397 52.2939231,8.27788302 52.576315,6.1770389 M51.2909885,15.5225661 C51.5733804,13.421722 50.0993704,12.4187873 48.3429685,12.4187873 C46.5878329,12.4187873 44.7985064,13.421722 44.5173808,15.5225661 C44.2349888,17.56136 45.7089988,18.5642946 47.4654007,18.5642946 C49.2218026,18.5642946 51.0085965,17.56136 51.2909885,15.5225661 M53.1094406,10.8498025 C54.3643753,11.6969783 55.1482345,13.3900637 54.8658426,15.5225661 C54.5530587,17.7804353 52.7029482,21.6693397 47.0259837,21.6693397 C41.3806774,21.6693397 40.6601347,17.7804353 40.9729186,15.5225661 C41.2236523,13.5470888 42.4785869,11.6032698 44.0475717,10.8498025 C42.7293205,10.0976015 41.9771196,8.3411996 42.2595115,6.1770389 C42.6039537,3.91916966 44.4236722,0.0302653252 50.0677122,0.0302653252 C55.7446767,0.0302653252 56.4968777,3.91916966 56.1511691,6.1770389 C55.994144,7.36865693 55.4306265,9.50115934 53.1094406,10.8498025" id="Fill-6" fill="#09536D" mask="url(#mask-8)"></path>
                <path d="M63.7661276,18.6187468 L70.8284589,18.6187468 L70.8284589,14.7893601 L63.7661276,14.7893601 L63.7661276,18.6187468 Z M63.7661276,12.8455411 L70.8284589,12.8455411 L70.8284589,9.29474729 L63.7661276,9.29474729 L63.7661276,12.8455411 Z M70.8284589,21.6275507 L70.8284589,20.6562744 L63.7648612,20.6562744 L63.7648612,21.7199929 L61.5424493,21.7199929 L61.5424493,7.23949111 L73.0141472,7.23949111 L73.0141472,21.6275507 L70.8284589,21.6275507 Z" id="Fill-7" fill="#09536D" mask="url(#mask-8)"></path>
                <path d="M86.4370089,18.0019167 C85.5594411,18.0019167 84.9604662,18.3197659 84.9604662,18.7503187 C84.9604662,19.1796051 85.5024562,19.5721679 86.605431,19.5721679 C87.8375716,19.5721679 87.800848,19.1416152 87.7641244,18.1703388 C87.4829988,18.1146202 86.9967275,18.0019167 86.4370089,18.0019167 L86.4370089,18.0019167 Z M91.8176518,20.4877256 C91.1452298,19.8520272 90.6412298,19.4784594 89.8561042,19.011183 C89.8193806,20.451002 89.4445464,21.421012 86.9042852,21.421012 C86.361029,21.421012 83.2230593,21.421012 83.2230593,18.7313237 C83.2230593,17.0496354 84.6996019,16.3214947 86.5117224,16.3214947 C86.8852903,16.3214947 87.2778531,16.3582183 87.6514209,16.3949419 C87.5019938,14.17253 87.4462752,13.386138 87.4095516,12.1172738 C86.1938732,12.2477059 85.1858733,12.3224195 84.0271799,12.2667009 L84.0081849,10.3418769 C84.3450291,10.3975955 84.8110391,10.4533141 85.6898732,10.4533141 C86.4002853,10.4533141 86.9042852,10.3975955 87.4272802,10.3418769 C87.4652701,8.94004781 87.4652701,8.73490209 87.5019938,6.88479163 L89.5939736,7.2203695 C89.9878027,7.27735442 90.0435213,7.36979663 90.0435213,7.48250014 C90.0435213,7.57620868 89.8750992,7.66991722 89.6876821,7.78262073 C89.5762449,8.24863076 89.5205263,9.07047996 89.4255515,10.0987412 C89.9485464,9.98603771 91.0337926,9.76189702 91.7429383,9.3326106 L91.7429383,11.3498768 C90.9768077,11.6120075 90.0055313,11.7614346 89.4078228,11.8741381 C89.4255515,13.8914044 89.4648077,14.7892335 89.6699535,16.8812133 C90.3980941,17.1813338 91.2022147,17.4979167 92.883903,18.6376152 L91.8176518,20.4877256 Z M80.7385167,21.1791427 L79.0188384,21.459002 C78.4578535,19.5911629 78.3084264,17.6283489 78.3084264,15.6668013 C78.3084264,12.713716 78.7199841,9.78089199 79.4481248,6.92278157 L81.2615116,7.6331936 C81.3172302,7.65092224 81.709793,7.81934435 81.709793,8.00549509 C81.709793,8.04348504 81.6907981,8.09920363 81.6350795,8.13719358 C81.5780945,8.17391719 81.3362252,8.26762573 81.2805066,8.2866207 C81.1488081,8.37906291 80.9246674,9.3326106 80.8689489,9.5567513 C80.7005268,10.3975955 80.1775318,13.9103993 80.1775318,15.348952 C80.1775318,15.5540977 80.1775318,16.5456354 80.2712403,17.3104997 L81.0361046,16.1897962 L82.213793,16.9939168 C81.8035016,17.8714846 80.9436624,19.6836051 80.7385167,21.1791427 L80.7385167,21.1791427 Z" id="Fill-8" fill="#09536D" mask="url(#mask-8)"></path>
                <polygon id="Fill-9" fill="#09536D" mask="url(#mask-8)" points="105.504924 21.4188593 101.773044 21.4188593 103.905547 5.89490022 100.330693 7.71461872 99.1694666 5.33138266 107.355034 0.15588542 108.452943 0.15588542"></polygon>
                <path d="M124.475204,10.7873723 C124.725938,8.90686992 124.946279,3.22990537 120.963667,3.22990537 C116.981054,3.22990537 115.63241,8.90686992 115.380411,10.7873723 C115.099285,12.6691411 114.878943,18.3764976 118.861556,18.3764976 C122.845435,18.3764976 124.192812,12.6691411 124.475204,10.7873723 M128.207083,10.7873723 C127.549857,15.3347691 124.789254,21.6069095 118.391747,21.6069095 C112.025898,21.6069095 111.021697,15.3347691 111.68019,10.7873723 C112.276632,6.36534241 115.099285,-0.000506532639 121.434742,-0.000506532639 C127.800591,-0.000506532639 128.803525,6.36534241 128.207083,10.7873723" id="Fill-10" fill="#09536D" mask="url(#mask-8)"></path>
                <path d="M140.86698,18.4285438 C140.911302,18.1448856 140.911302,17.3863529 140.152769,17.3863529 C139.377774,17.3863529 139.168829,18.1448856 139.124508,18.4285438 C139.080186,18.7122021 139.080186,19.4707347 139.853915,19.4707347 C140.613714,19.4707347 140.822659,18.7122021 140.86698,18.4285438 L140.86698,18.4285438 Z M142.282739,18.4285438 C142.148508,19.4264131 141.419101,20.7965839 139.675362,20.7965839 C137.902498,20.7965839 137.574518,19.4264131 137.708749,18.4285438 C137.84298,17.4749961 138.558458,16.0440414 140.331322,16.0440414 C142.073794,16.0440414 142.41697,17.4749961 142.282739,18.4285438 L142.282739,18.4285438 Z M135.385031,20.7231367 L133.879362,20.7231367 L138.752206,10.2936297 L140.241412,10.2936297 L135.385031,20.7231367 Z M134.983604,12.5882225 C135.012729,12.3058306 135.027925,11.5447653 134.26686,11.5447653 C133.493131,11.5447653 133.268991,12.3058306 133.239865,12.5882225 C133.194277,12.8706145 133.194277,13.6316797 133.970538,13.6316797 C134.729071,13.6316797 134.938016,12.8706145 134.983604,12.5882225 L134.983604,12.5882225 Z M136.398096,12.5882225 C136.249935,13.5873581 135.533191,14.9575289 133.790719,14.9575289 C132.017855,14.9575289 131.674679,13.5873581 131.824106,12.5882225 C131.958337,11.6346748 132.672548,10.2049864 134.446679,10.2049864 C136.190418,10.2049864 136.532327,11.6346748 136.398096,12.5882225 L136.398096,12.5882225 Z" id="Fill-11" fill="#09536D" mask="url(#mask-8)"></path>
                <path d="M160.038987,11.1600537 L162.437419,11.1600537 L162.437419,10.1837121 L160.038987,10.1837121 L160.038987,11.1600537 Z M160.038987,8.529883 L162.437419,8.529883 L162.437419,7.61685792 L160.038987,7.61685792 L160.038987,8.529883 Z M156.60343,19.1797317 L161.440816,19.1797317 L161.440816,17.9703851 L156.60343,17.9703851 L156.60343,19.1797317 Z M156.60343,16.5900836 L161.440816,16.5900836 L161.440816,15.4440535 L156.60343,15.4440535 L156.60343,16.5900836 Z M155.520716,11.1600537 L157.791249,11.1600537 L157.791249,10.1837121 L155.520716,10.1837121 L155.520716,11.1600537 Z M155.520716,8.529883 L157.791249,8.529883 L157.791249,7.61685792 L155.520716,7.61685792 L155.520716,8.529883 Z M161.440816,21.3008372 L161.440816,20.7271889 L156.60343,20.7271889 L156.60343,21.3856814 L154.39748,21.3856814 L154.39748,13.9168576 L163.668294,13.9168576 L163.668294,21.3008372 L161.440816,21.3008372 Z M153.378083,12.8138828 L153.378083,5.94023489 L155.606827,5.94023489 C155.352294,5.43116959 154.948334,4.73088821 154.417741,4.05213448 L156.41348,3.28853652 C157.134023,4.28513949 157.684877,5.38811431 157.74946,5.53627511 L156.668013,5.94023489 L159.467872,5.94023489 C159.955409,5.13358166 160.337841,4.41177265 160.846907,3.22395361 L162.650163,3.71275761 C163.011067,3.81912946 163.223811,3.88244604 163.223811,4.03060684 C163.223811,4.11545106 163.180756,4.13697869 163.137701,4.17876764 C163.095912,4.20029527 162.79959,4.28513949 162.735007,4.3054008 C162.693218,4.3497224 161.823248,5.70722987 161.632032,5.94023489 L164.53953,5.94023489 L164.53953,12.8138828 L153.378083,12.8138828 Z M147.904998,18.1185459 C147.416194,18.2033901 147.352877,18.2249177 147.246505,18.4794504 C147.184455,18.6060835 147.140134,18.6909277 147.056556,18.6909277 C146.928656,18.6909277 146.886867,18.5212393 146.822284,18.1603348 L146.504435,16.060757 C147.184455,16.060757 147.88347,15.9746465 149.156133,15.7631691 L149.156133,10.0773402 L146.991973,10.0773402 L146.991973,7.89291821 L149.156133,7.89291821 L149.156133,3.62664706 L151.087289,3.92550132 C151.574827,4.0090792 151.681199,4.07366211 151.681199,4.20029527 C151.681199,4.32819477 151.596354,4.36998371 151.468455,4.45609426 C151.300033,4.58146108 151.278505,4.60425505 151.278505,4.66757163 L151.278505,7.89291821 L152.636013,7.89291821 L152.636013,10.0773402 L151.278505,10.0773402 L151.278505,15.3604756 C152.020576,15.2123148 152.126947,15.1907872 153.102023,14.9780435 L153.102023,16.9940434 C151.023973,17.5664253 149.368877,17.8640132 147.904998,18.1185459 L147.904998,18.1185459 Z" id="Fill-12" fill="#09536D" mask="url(#mask-8)"></path>
                <path d="M179.398665,15.0198324 L182.412534,15.0198324 L182.412534,14.3410787 L179.398665,14.3410787 L179.398665,15.0198324 Z M179.398665,13.154526 L182.412534,13.154526 L182.412534,12.5808778 L179.398665,12.5808778 L179.398665,13.154526 Z M173.586203,7.36232527 L182.412534,7.36232527 L182.412534,6.72536048 L173.586203,6.72536048 L173.586203,7.36232527 Z M173.586203,5.55906908 L182.412534,5.55906908 L182.412534,4.92210428 L173.586203,4.92210428 L173.586203,5.55906908 Z M173.564675,15.0198324 L176.598806,15.0198324 L176.598806,14.3410787 L173.564675,14.3410787 L173.564675,15.0198324 Z M173.564675,13.154526 L176.598806,13.154526 L176.598806,12.5808778 L173.564675,12.5808778 L173.564675,13.154526 Z M171.12572,8.61346089 L184.894544,8.61346089 L184.894544,3.60638576 L171.12572,3.60638576 L171.12572,8.61346089 Z M168.855188,21.1311487 L168.855188,19.3696815 L176.598806,19.3696815 L176.598806,18.5858222 L170.402645,18.5858222 L170.402645,17.1219429 L176.598806,17.1219429 L176.598806,16.3988675 L171.102926,16.3988675 L171.102926,11.222104 L184.894544,11.222104 L184.894544,16.3988675 L179.398665,16.3988675 L179.398665,17.1219429 L185.360554,17.1219429 L185.360554,18.5858222 L179.398665,18.5858222 L179.398665,19.3696815 L187.142282,19.3696815 L187.142282,21.1311487 L168.855188,21.1311487 Z M168.855188,10.6079332 L187.142282,10.6079332 L187.142282,9.10226489 L168.855188,9.10226489 L168.855188,10.6079332 Z" id="Fill-13" fill="#09536D" mask="url(#mask-8)"></path>
                <path d="M197.455034,10.6179372 L196.254551,15.8972736 L194.227154,15.8972736 L194.501948,10.6179372 L195.477024,3.58599782 L198.431375,3.58599782 L197.455034,10.6179372 Z M194.978089,17.773977 C195.953164,17.773977 196.579999,18.5008514 196.454632,19.4759267 C196.303938,20.4522684 195.477024,21.2019367 194.501948,21.2019367 C193.525607,21.2019367 192.900039,20.4522684 193.050732,19.4759267 C193.176099,18.5008514 194.001747,17.773977 194.978089,17.773977 L194.978089,17.773977 Z" id="Fill-14" fill="#09536D" mask="url(#mask-8)"></path>
                <path d="M204.361733,10.6179372 L203.16125,15.8972736 L201.133854,15.8972736 L201.408648,10.6179372 L202.383723,3.58599782 L205.338074,3.58599782 L204.361733,10.6179372 Z M201.884788,17.773977 C202.859864,17.773977 203.486698,18.5008514 203.361331,19.4759267 C203.210637,20.4522684 202.383723,21.2019367 201.408648,21.2019367 C200.432306,21.2019367 199.806738,20.4522684 199.957432,19.4759267 C200.082798,18.5008514 200.908447,17.773977 201.884788,17.773977 L201.884788,17.773977 Z" id="Fill-15" fill="#09536D" mask="url(#mask-8)"></path>
            </g>
            <polygon id="Line-2" fill="#005672" fill-rule="nonzero" points="1379 4020 1379 4023 780 4023 780 4020"></polygon>
        </g>
    </g>
</svg>